<!-- /public/logos/google-icon.svg -->
<svg width="22" height="22" viewBox="0 0 48 48" fill="none" xmlns="http://www.w3.org/2000/svg">
  <g>
    <path fill="#4285F4" d="M24 9.5c3.54 0 6.03 1.53 7.42 2.81l5.54-5.41C33.6 4.04 29.1 2 24 2 14.82 2 6.85 7.74 3.33 15.44l6.89 5.35C12.1 13.88 17.62 9.5 24 9.5z"/>
    <path fill="#34A853" d="M46.1 24.55c0-1.61-.14-3.15-.41-4.64H24v9.06h12.38c-.53 2.85-2.15 5.27-4.58 6.91l7.08 5.5C43.94 37.15 46.1 31.36 46.1 24.55z"/>
    <path fill="#FBBC05" d="M10.22 28.42A13.98 13.98 0 0 1 9 24c0-1.54.27-3.03.75-4.42l-6.89-5.35A22.98 22.98 0 0 0 2 24c0 3.53.85 6.88 2.36 9.77l7.86-6.35z"/>
    <path fill="#EA4335" d="M24 44c5.83 0 10.74-1.93 14.32-5.25l-7.08-5.5c-1.96 1.31-4.47 2.08-7.24 2.08-6.38 0-11.77-4.38-13.73-10.26l-7.86 6.35C6.85 40.26 14.82 46 24 46z"/>
    <path fill="none" d="M2 2h44v44H2z"/>
  </g>
</svg>
