<svg version="1.1" id="Layer_1" xmlns="http://www.w3.org/2000/svg" xmlns:xlink="http://www.w3.org/1999/xlink" x="0px" y="0px" width="100%" viewBox="0 0 1024 1024" enable-background="new 0 0 1024 1024" xml:space="preserve">

<path fill="#1188B4" opacity="1.000000" stroke="none" d="
M512.097961,593.007446 
	C513.438599,591.281921 514.779236,589.556335 516.459106,587.571350 
	C518.608276,585.782166 520.418213,584.252380 522.738220,582.291565 
	C523.612122,584.132019 525.549683,586.232117 525.186768,587.799500 
	C523.800232,593.787720 521.833435,599.663940 519.693542,605.437439 
	C519.239929,606.661377 517.230591,607.470276 515.779907,608.114136 
	C514.515747,608.675232 513.028564,608.734009 510.382446,609.268860 
	C513.749207,611.339966 516.140320,612.810852 517.413513,613.594055 
	C517.672302,617.627869 517.532410,620.702026 518.313171,623.521118 
	C518.484985,624.141479 521.924927,623.856689 525.245300,624.083252 
	C521.223938,627.258606 518.177124,630.262268 514.589600,632.325989 
	C511.125458,634.318909 508.069702,632.091492 507.522675,627.988281 
	C507.185944,625.462280 506.656219,622.961914 506.168640,620.197632 
	C506.401794,620.172791 507.200165,620.087585 508.149902,620.134521 
	C508.637817,620.357727 508.974365,620.448730 509.310913,620.539795 
	C509.335114,620.433777 509.359314,620.327820 509.383514,620.221802 
	C508.923553,620.147034 508.463623,620.072266 508.011414,619.643005 
	C506.348328,613.862061 504.677490,608.435547 503.213806,602.846680 
	C505.280243,597.257996 498.897491,601.769775 498.850708,598.402588 
	C499.131714,597.537415 499.538666,596.284363 500.076080,594.728394 
	C499.458771,593.294128 498.710968,592.162781 497.955505,590.785217 
	C497.947845,590.539062 497.938110,590.046631 497.962158,589.627808 
	C499.005157,585.186035 500.024109,581.163147 500.823608,578.006592 
	C499.001923,575.837891 497.623657,573.768555 495.799500,572.226562 
	C495.018127,571.566040 493.308868,572.003235 491.874023,571.696716 
	C491.899567,570.081482 492.072266,568.711182 492.098022,568.506836 
	C486.825989,566.255920 481.908478,564.156311 476.734253,561.872437 
	C475.316833,561.807617 474.156128,561.927185 472.602966,562.020508 
	C467.395691,560.298096 462.570404,558.630859 457.768890,556.897644 
	C452.473816,554.986267 447.200562,553.014282 441.886139,550.762634 
	C441.671448,549.072083 441.488434,547.687561 441.146210,545.098755 
	C438.408264,546.540710 436.179962,547.714294 433.680359,548.728027 
	C432.275085,548.039124 431.141083,547.510071 429.852692,546.804199 
	C429.482391,546.399658 429.248688,546.191833 428.716248,545.799683 
	C424.536530,543.488586 420.411072,541.709106 416.790649,539.200623 
	C410.959137,535.160156 405.343597,530.782227 399.847595,526.289062 
	C390.339813,518.516052 380.230164,511.280762 371.759064,502.484985 
	C359.216064,489.461182 350.542084,473.658966 343.934845,456.814789 
	C343.501312,455.709595 343.885254,454.283783 344.186951,453.204468 
	C345.601257,455.000946 347.170319,456.451233 347.753448,458.225586 
	C349.970337,464.970886 353.555878,470.867432 359.397766,474.774384 
	C363.230927,477.337952 365.429474,482.251892 370.689941,482.732758 
	C370.754395,482.738678 370.794983,483.005646 370.852234,483.155029 
	C370.145691,483.984344 369.433594,484.809387 369.158661,485.127899 
	C371.397827,488.813751 373.378357,492.073883 374.841980,494.483124 
	C377.808167,494.767639 380.080475,495.214661 382.321777,495.092468 
	C383.272797,495.040619 384.158752,493.794739 385.320770,493.072693 
	C385.567230,493.053802 386.061401,493.013580 386.352844,493.173462 
	C388.741150,495.867371 390.838043,498.401459 392.591827,500.848755 
	C389.656982,499.811279 387.065216,498.860626 384.473480,497.909973 
	C384.261292,498.466980 384.049072,499.024017 383.836884,499.581055 
	C385.255585,500.611511 386.727966,501.576447 388.082001,502.685852 
	C391.073151,505.136627 393.880585,507.840973 397.053040,510.019470 
	C397.792267,510.527100 399.689667,509.348053 401.390564,509.043091 
	C403.833832,511.071442 405.940765,513.001770 407.749054,514.977417 
	C406.932922,515.498474 406.415375,515.974243 405.897858,516.450012 
	C406.359802,516.792114 406.821747,517.134216 407.283752,517.476318 
	C407.879028,516.671997 408.474274,515.867615 409.353882,515.231567 
	C412.070129,517.256165 414.501984,519.112427 416.709167,521.077637 
	C416.441193,521.832825 416.397858,522.479065 416.354492,523.125244 
	C416.940369,522.509583 417.526245,521.893860 418.405121,521.343933 
	C419.456635,522.257507 420.215179,523.105286 420.716797,524.092651 
	C418.755219,527.154297 420.199799,528.474792 423.600250,529.618103 
	C423.386780,527.744019 423.235748,526.418335 423.396790,525.165283 
	C425.118835,526.169006 426.528809,527.100098 427.835297,528.328247 
	C428.113190,530.214172 428.494568,531.803040 428.875946,533.391968 
	C429.433228,533.255310 429.990509,533.118652 430.547821,532.981995 
	C430.381683,531.649292 430.215576,530.316528 430.378235,529.017822 
	C431.806396,529.681458 432.905853,530.311096 433.879059,531.251831 
	C435.131775,533.493652 436.140747,536.371033 437.991547,537.094299 
	C439.921967,537.848694 442.663635,536.527161 445.344177,536.225586 
	C446.760162,536.872925 447.882599,537.407898 449.039795,538.257507 
	C449.768982,540.883789 450.737030,541.188904 452.439423,538.996216 
	C455.494843,539.822021 458.120117,540.832581 460.839233,541.353333 
	C462.264404,541.626221 463.854034,541.040039 465.369415,540.841797 
	C464.933624,539.544067 464.497803,538.246338 463.941467,536.615112 
	C457.257874,525.013550 450.952301,513.584778 444.055054,502.525055 
	C437.889801,492.639130 431.510010,482.867950 422.608093,475.004395 
	C417.470093,470.465729 413.569000,464.283020 407.965607,460.568237 
	C397.833405,453.851044 387.029541,448.053314 376.127991,442.632080 
	C371.120667,440.142029 365.218750,439.450928 359.500122,437.902588 
	C358.887817,437.643524 358.497864,437.425903 357.859680,437.047180 
	C357.122833,436.554199 356.634247,436.222321 356.228607,435.576050 
	C357.394745,432.800873 358.477936,430.340118 359.147552,428.818939 
	C361.769653,429.408813 363.897278,429.842590 365.999573,430.376160 
	C367.403412,430.732452 368.807251,431.140930 370.149139,431.680267 
	C378.215546,434.922577 386.113007,438.674591 394.360474,441.352081 
	C402.786591,444.087585 409.757141,448.474731 415.748901,454.950165 
	C419.193451,458.672791 422.943878,462.911926 427.438019,464.686676 
	C435.256348,467.774200 440.097778,474.628876 447.342987,478.168304 
	C446.642181,479.633636 445.986023,481.005585 445.269409,482.503967 
	C446.175049,482.851562 446.748444,483.292297 447.041046,483.151093 
	C452.257843,480.633911 455.271118,483.041199 458.097290,487.360413 
	C459.802185,489.966003 462.637878,491.831757 464.979980,494.019897 
	C464.994476,494.009827 464.970764,494.022583 464.968140,494.407867 
	C466.300079,496.550232 467.634674,498.307312 468.968689,500.294006 
	C468.968140,500.523621 468.977905,500.982697 468.987183,501.350464 
	C470.291290,503.183838 471.586090,504.649445 472.968628,506.454895 
	C477.643005,515.578674 482.779266,524.125244 486.696320,533.198181 
	C493.800568,549.653381 500.224731,566.403870 506.828461,583.072449 
	C508.523590,587.351013 509.829041,591.783997 511.313507,596.146057 
	C511.636658,596.047729 511.959839,595.949341 512.283020,595.851013 
	C512.221313,594.903137 512.159668,593.955322 512.097961,593.007446 
M521.422180,590.529968 
	C521.295654,589.996155 521.169189,589.462280 521.042664,588.928467 
	C520.677734,589.162292 520.312805,589.396179 519.947937,589.630066 
	C520.338379,590.036499 520.728821,590.442932 521.422180,590.529968 
M513.528198,623.498108 
	C513.528198,623.498108 513.485779,623.511414 513.528198,623.498108 
M516.531921,625.499329 
	C516.531921,625.499329 516.487427,625.515442 516.531921,625.499329 
M516.468201,601.498535 
	C516.468201,601.498535 516.515503,601.480347 516.468201,601.498535 
M521.498352,594.536072 
	C521.498352,594.536072 521.479065,594.486755 521.498352,594.536072 
M483.530243,564.507507 
	C483.530243,564.507507 483.483887,564.523560 483.530243,564.507507 
M431.513641,544.498596 
	C431.513641,544.498596 431.477905,544.510376 431.513641,544.498596 
M449.501190,493.469635 
	C449.501190,493.469635 449.518829,493.514618 449.501190,493.469635 
z" data-index="1" style="opacity: 1;"></path>
<path fill="#1188B4" opacity="1.000000" stroke="none" d="
M518.122314,580.893005 
	C521.378845,571.108276 524.614624,561.316467 527.908203,551.544250 
	C528.626282,549.413635 529.551025,547.352661 530.977173,544.906372 
	C532.043762,543.046570 532.513733,541.539978 532.983704,540.033447 
	C532.983704,540.033447 532.988586,539.951050 533.302368,539.757935 
	C534.403931,537.061462 535.191772,534.558228 535.979614,532.054932 
	C535.979614,532.054932 535.941284,531.831177 536.158203,531.594727 
	C536.575562,530.905151 536.776001,530.452026 536.976440,529.998840 
	C536.976440,529.998840 536.981567,529.979797 537.274719,529.969238 
	C537.756531,529.970398 537.945251,529.982117 538.189941,530.213928 
	C538.824097,530.268738 539.402161,530.103455 539.996948,529.573608 
	C541.331238,526.782898 542.648865,524.356689 544.138428,522.221802 
	C545.657349,524.197937 547.004272,525.882690 549.220581,528.655029 
	C549.220581,525.416748 549.220581,523.770996 549.220581,523.341736 
	C552.611572,523.573792 555.796814,523.791748 558.777588,524.241516 
	C558.510071,525.683105 558.447021,526.892944 558.383911,528.102722 
	C559.160767,527.665283 559.937561,527.227844 560.714355,526.790344 
	C560.146973,525.856140 559.579590,524.921936 559.165161,523.687195 
	C562.481750,518.588745 565.875610,513.923889 568.745972,508.956543 
	C571.782837,503.701080 574.200317,498.091400 577.118591,492.762543 
	C579.189087,488.981598 581.324524,485.157013 583.997803,481.803802 
	C588.085144,476.676910 592.661377,471.939728 597.237183,466.771881 
	C600.985657,463.589935 605.352966,461.255707 607.903259,457.639923 
	C613.943726,449.075897 623.354187,445.569946 631.754456,440.764038 
	C638.651428,436.818298 646.591431,434.722809 653.991760,431.622467 
	C661.553406,428.454498 667.031555,431.462006 666.639709,438.947845 
	C665.949585,438.988220 665.554504,439.008362 665.004333,438.697235 
	C663.357300,438.098785 661.642395,437.219299 660.411316,437.667877 
	C654.342407,439.879059 648.371460,442.370972 642.424683,444.901978 
	C636.960388,447.227631 631.001038,448.925903 626.250244,452.296570 
	C608.644592,464.787598 593.365112,479.853180 581.858643,498.166687 
	C573.818665,510.962952 567.129028,524.607666 559.620972,538.093872 
	C556.952026,540.235779 557.130920,541.754272 560.343262,541.832581 
	C562.232971,541.878723 564.159729,540.911255 566.049622,540.333557 
	C569.670715,539.226746 573.277344,538.072693 577.224609,536.925659 
	C578.420227,536.328918 579.281189,535.744629 580.439941,535.127930 
	C581.135559,535.060608 581.533325,535.025757 582.301575,534.925659 
	C586.806152,532.614624 590.940247,530.368958 595.075562,528.104553 
	C595.076843,528.085815 595.112610,528.097046 595.478516,528.078369 
	C597.567383,526.686462 599.290405,525.313232 601.237732,523.717407 
	C602.927124,522.641357 604.392334,521.787903 606.155518,520.852600 
	C606.993958,520.195801 607.534424,519.620972 608.288452,518.885010 
	C608.976624,518.482239 609.451172,518.240601 610.250732,517.921021 
	C611.389771,516.895752 612.203918,515.948425 613.010864,515.002808 
	C613.003723,515.004517 612.996765,515.017273 613.355713,514.988037 
	C617.525818,511.343079 621.336975,507.727417 625.394104,503.927032 
	C626.735352,502.838654 627.830566,501.934998 629.334412,501.041199 
	C630.832886,501.037720 631.922791,501.024445 633.389893,501.016388 
	C636.360291,501.002563 638.451782,501.630157 640.763184,498.528992 
	C643.526123,494.822235 644.986755,487.004120 651.790649,490.792572 
	C655.345459,487.755188 658.267212,485.258667 661.160950,482.786102 
	C663.172791,478.018433 667.599609,474.892975 671.189026,471.339294 
	C671.599548,472.452911 671.887085,473.269653 672.139221,474.473694 
	C672.059875,475.895355 672.015808,476.929626 671.971741,477.963928 
	C671.971741,477.963928 671.995300,478.003479 671.656494,477.963409 
	C670.890198,477.965546 670.462830,478.007751 669.739807,478.180115 
	C669.013794,479.237091 668.583374,480.163910 668.037781,481.415253 
	C660.998474,490.578613 654.203552,499.524109 647.057617,508.179871 
	C645.315308,510.290314 642.420898,511.449524 640.031738,513.010498 
	C640.007202,512.974792 640.046082,513.056702 640.023926,513.423096 
	C638.971741,515.396362 638.236694,517.343140 636.853638,518.543030 
	C633.392944,521.545593 629.638367,524.209534 625.841797,526.904907 
	C625.454651,527.200256 625.227356,527.600037 624.747864,528.184692 
	C623.712280,528.634644 622.929016,528.899841 621.818970,529.211365 
	C620.650024,530.146545 619.807861,531.035400 618.767212,532.197327 
	C613.404785,535.348755 608.240845,538.227112 602.732178,541.095337 
	C601.586121,542.055176 600.784668,543.025146 599.743164,544.222656 
	C596.993591,545.646423 594.484070,546.842712 591.843994,547.752502 
	C589.598572,547.767639 587.483643,548.069336 585.368713,548.370972 
	C585.652161,548.931274 585.935608,549.491638 586.084595,550.336426 
	C584.968506,551.384888 583.986938,552.148926 582.772705,552.758240 
	C582.013977,552.421021 581.488037,552.238525 580.721008,552.294556 
	C577.512573,554.283142 574.741211,556.698425 571.536499,557.642639 
	C565.150818,559.523926 558.527161,560.596985 551.775757,561.800415 
	C549.592896,560.189941 548.250549,560.254089 547.705566,563.072632 
	C546.896057,563.078979 546.433350,563.070312 545.867188,562.987061 
	C545.492493,562.827942 545.279785,562.910034 545.109497,563.379517 
	C545.093567,563.600342 545.025818,564.037903 544.647461,564.070068 
	C539.533020,566.712280 534.796875,569.322327 529.971863,571.714783 
	C529.520813,571.108276 529.158630,570.719421 528.796509,570.330566 
	C528.629883,570.495422 528.463318,570.660339 528.296692,570.825256 
	C528.842651,571.233032 529.388611,571.640869 530.028198,572.302612 
	C533.570557,577.288025 528.840820,577.156250 526.584351,578.500488 
	C526.799316,579.238098 527.018372,579.972839 527.156982,580.437805 
	C523.901184,580.601868 521.011780,580.747437 518.122314,580.893005 
M569.958496,549.938049 
	C569.958496,549.938049 570.006226,549.995911 570.045471,550.061523 
	C570.045471,550.061523 569.995728,550.006287 569.958496,549.938049 
M528.416199,564.634277 
	C528.915405,563.789246 529.414612,562.944214 529.913818,562.099182 
	C529.542236,561.955505 529.170715,561.811768 528.799133,561.668091 
	C528.530334,562.776550 528.261475,563.885071 527.615906,565.122925 
	C527.472656,565.445190 527.329407,565.767456 527.186096,566.089722 
	C527.459839,565.728882 527.733582,565.368103 528.416199,564.634277 
M522.098206,577.173340 
	C521.914185,577.332642 521.730164,577.492004 521.546204,577.651367 
	C521.682617,577.711487 521.896790,577.857056 521.941589,577.816345 
	C522.107117,577.665771 522.216675,577.453613 522.098206,577.173340 
M542.224792,532.133362 
	C542.059692,532.102112 541.894592,532.070801 541.729492,532.039551 
	C541.843567,532.116394 541.957642,532.193298 542.224792,532.133362 
M530.493774,567.069153 
	C530.493774,567.069153 530.434509,567.017456 530.493774,567.069153 
M539.424622,563.055420 
	C539.424622,563.055420 539.428650,562.971680 539.424622,563.055420 
M570.061218,552.509827 
	C570.061218,552.509827 570.015137,552.560608 570.061218,552.509827 
z" data-index="2" style="opacity: 1;"></path>
<path fill="#148FBA" opacity="1.000000" stroke="none" d="
M560.055603,412.991974 
	C560.010925,413.157837 559.966248,413.323669 559.559570,413.921265 
	C557.462341,420.564514 555.727173,426.776062 553.964722,433.230225 
	C553.937439,433.472870 553.899292,433.959747 553.744934,434.192993 
	C553.384827,434.943878 553.179077,435.461548 552.914246,436.199921 
	C552.855103,436.420593 552.764832,436.868530 552.504028,437.066833 
	C550.870544,440.390259 547.108521,442.800079 549.235718,447.362488 
	C548.364319,449.773254 547.585999,451.822327 546.513184,454.013245 
	C545.259155,456.437256 544.299500,458.719391 543.253235,461.310913 
	C543.043518,462.030670 542.920471,462.440979 542.457031,462.939209 
	C541.400513,463.417480 540.360107,463.624512 540.019226,464.227203 
	C537.284119,469.062500 534.714905,473.991333 532.012085,478.845398 
	C531.397034,479.949860 530.669556,481.309082 529.635071,481.809784 
	C524.008972,484.532867 518.270569,487.023834 512.271362,489.729736 
	C511.041229,486.167908 508.601440,485.279358 504.870819,485.715546 
	C503.267639,485.902985 500.564392,484.161713 499.823914,482.602081 
	C498.513306,479.841583 496.829407,478.851776 494.020782,479.035187 
	C493.997192,479.009460 493.946289,478.961700 493.789734,478.668030 
	C491.882629,475.939270 490.060272,473.551971 488.398529,471.057709 
	C485.950623,467.383331 483.617157,463.632660 481.089050,459.683777 
	C480.723114,458.956238 480.503082,458.459473 480.406006,457.643524 
	C479.414581,452.269867 478.429871,447.180084 477.071045,442.192169 
	C476.814880,441.251709 475.069275,440.716980 473.872681,439.773926 
	C473.579437,439.062225 473.424530,438.571594 473.357178,437.746460 
	C472.934021,433.281830 472.423340,429.151733 472.226379,425.101624 
	C474.116699,427.366425 476.609039,429.357910 477.117828,431.768066 
	C479.920502,445.045135 485.915527,456.928558 492.487701,468.567108 
	C494.457031,472.054535 497.649109,474.072479 502.057312,473.329926 
	C503.317627,477.053009 505.478638,478.449219 509.340851,476.990356 
	C510.114105,476.995575 510.555969,476.999054 511.303833,477.179169 
	C522.605896,476.755157 531.126160,476.317780 532.930359,465.761108 
	C531.664062,465.194000 530.344055,464.602844 529.117676,463.789581 
	C529.857361,461.680756 535.165771,464.752533 533.035889,460.149414 
	C531.732910,457.333344 529.733521,454.839508 527.949158,452.048035 
	C526.126282,453.372955 523.621155,455.193817 521.158813,456.652832 
	C530.964111,436.363556 535.923645,415.322662 534.126587,393.162445 
	C532.354370,371.307617 525.022888,351.185883 512.578308,331.825287 
	C511.344604,334.566864 510.721161,336.388458 509.762787,338.012390 
	C502.600037,350.149628 497.500732,363.084137 494.471588,376.847168 
	C493.719452,380.264587 492.810394,383.647461 491.831757,386.770203 
	C492.020874,383.579163 492.560974,380.669128 492.631927,377.747711 
	C492.730438,373.691711 492.672974,369.606323 492.245728,365.579865 
	C492.128784,364.477814 490.450714,363.541443 489.283691,362.312805 
	C490.578339,361.703033 491.546753,361.246918 492.470734,360.811737 
	C491.906494,358.384766 491.394318,356.181793 490.881836,353.977509 
	C493.108215,353.519867 493.996338,352.930359 498.175507,347.232269 
	C502.293945,341.616913 506.073944,335.753296 510.019775,329.629578 
	C510.569794,327.699738 511.102570,326.138916 511.956482,323.637207 
	C517.054626,329.353912 522.181335,333.728943 525.515808,339.196838 
	C529.496765,345.724915 531.755310,353.281403 535.164246,360.192993 
	C536.243835,362.381897 538.620056,363.931274 539.983521,365.340027 
	C539.354309,367.133118 537.727295,369.357300 538.150757,371.076385 
	C538.977112,374.431335 540.852783,377.554871 542.487000,380.673065 
	C543.390930,382.397827 544.337463,384.723511 545.867188,385.385040 
	C551.358582,387.759644 553.276489,392.668335 555.527100,397.446259 
	C556.721008,399.980927 557.892456,402.526215 559.135010,405.314575 
	C559.410095,406.026703 559.624329,406.490936 559.862915,407.295471 
	C559.884155,408.090546 559.881104,408.545319 559.744995,409.237976 
	C559.742493,410.309143 559.872986,411.142395 560.011719,411.978363 
	C560.020020,411.981049 560.027771,411.996674 560.022949,412.245850 
	C560.018188,412.494995 560.055603,412.991974 560.055603,412.991974 
M528.190308,448.754974 
	C528.922913,447.865204 529.655457,446.975433 530.388000,446.085632 
	C529.833984,445.782990 529.279968,445.480347 528.725952,445.177673 
	C528.380066,446.337341 528.034180,447.497009 528.190308,448.754974 
M532.970764,450.823090 
	C533.237671,451.031219 533.500916,451.244934 533.781372,451.432770 
	C533.797302,451.443451 533.954895,451.242676 534.046570,451.140320 
	C533.763977,450.951355 533.481384,450.762360 532.970764,450.823090 
z" data-index="3" style="opacity: 1;"></path>
<path fill="#129CCA" opacity="1.000000" stroke="none" d="
M510.002441,329.998596 
	C506.073944,335.753296 502.293945,341.616913 498.175507,347.232269 
	C493.996338,352.930359 493.108215,353.519867 490.881836,353.977509 
	C491.394318,356.181793 491.906494,358.384766 492.470734,360.811737 
	C491.546753,361.246918 490.578339,361.703033 489.283691,362.312805 
	C490.450714,363.541443 492.128784,364.477814 492.245728,365.579865 
	C492.672974,369.606323 492.730438,373.691711 492.631927,377.747711 
	C492.560974,380.669128 492.020874,383.579163 491.801117,387.104187 
	C491.852661,388.157013 491.793091,388.599976 491.580688,389.332367 
	C491.299469,390.493408 491.171112,391.364960 491.056824,392.568176 
	C490.996216,393.979187 490.921509,395.058533 490.846802,396.137909 
	C490.615112,396.140594 490.383423,396.143311 490.151733,396.146027 
	C490.078308,395.104095 490.004883,394.062164 489.833893,392.965454 
	C489.514099,392.838409 489.305786,392.870758 489.116882,393.447815 
	C489.285431,397.039368 489.913879,400.248718 489.530518,403.332245 
	C487.899750,416.448608 490.614960,428.816162 495.437317,440.868652 
	C498.704590,449.034485 502.350159,457.060364 505.308105,465.334167 
	C507.043274,470.187653 509.659943,472.634644 514.827820,472.131592 
	C513.516479,473.985687 512.257141,475.494110 510.997833,477.002563 
	C510.555969,476.999054 510.114105,476.995575 509.246460,476.665955 
	C507.447235,473.401062 505.426697,471.774658 502.009247,472.981720 
	C497.649109,474.072479 494.457031,472.054535 492.487701,468.567108 
	C485.915527,456.928558 479.920502,445.045135 477.117828,431.768066 
	C476.609039,429.357910 474.116699,427.366425 472.177063,424.760651 
	C471.561249,423.223328 471.308441,422.107025 471.359711,420.815430 
	C471.914429,418.954346 472.498047,417.240143 472.357330,415.587616 
	C471.787231,408.893860 471.070923,402.209015 470.196106,395.548767 
	C470.073486,394.615021 468.770874,393.836273 468.198944,392.733643 
	C469.256439,388.654877 470.129456,384.828278 471.189697,380.938568 
	C471.523651,380.560822 471.670380,380.246124 471.817078,379.931458 
	C471.544189,380.286804 471.271271,380.642181 470.643585,380.991150 
	C469.579346,380.966980 468.869904,380.949188 468.202179,380.577637 
	C468.226044,377.804596 468.208160,375.385254 468.190247,372.965942 
	C468.539398,371.132812 468.888550,369.299652 469.620728,367.440857 
	C470.405640,366.972870 470.807526,366.530548 471.388855,365.780579 
	C474.372955,358.638428 477.177643,351.803894 480.056000,344.867493 
	C480.234619,344.524048 480.218323,344.288086 480.138306,343.735260 
	C480.787872,342.271576 481.379944,341.130402 482.321198,339.910553 
	C484.793152,337.551849 486.870789,335.227356 489.056702,333.009613 
	C490.246735,331.802246 491.551788,330.019043 492.932007,329.893555 
	C494.168182,329.781158 495.622894,331.530334 496.892029,332.567322 
	C497.470367,333.039886 497.833862,333.775360 498.571747,334.761810 
	C502.498352,333.125580 506.250397,331.562103 510.002441,329.998596 
M491.642395,337.708954 
	C491.097900,337.813385 490.553375,337.917816 490.008881,338.022247 
	C490.413666,338.445251 490.818420,338.868286 491.223145,339.291290 
	C491.473358,338.869873 491.723572,338.448425 491.642395,337.708954 
z" data-index="4" style="opacity: 1;"></path>
<path fill="#137AA2" opacity="1.000000" stroke="none" d="
M517.781372,581.077271 
	C521.011780,580.747437 523.901184,580.601868 527.156982,580.437805 
	C527.018372,579.972839 526.799316,579.238098 526.584351,578.500488 
	C528.840820,577.156250 533.570557,577.288025 530.060364,572.274231 
	C529.998962,571.991943 530.060791,571.932434 530.060791,571.932434 
	C534.796875,569.322327 539.533020,566.712280 544.463928,564.346191 
	C533.406677,575.035339 532.615356,589.584351 529.574524,603.275574 
	C530.025696,602.624390 530.476807,601.973267 530.927979,601.322083 
	C530.106873,607.302063 528.813110,613.262329 528.562195,619.266174 
	C528.025879,632.100403 527.008789,645.043274 528.083008,657.781860 
	C529.290894,672.105896 532.691162,686.237854 534.851746,700.496765 
	C535.157410,702.513855 533.845093,704.776123 533.088806,706.615356 
	C535.560181,699.536377 532.033936,694.004395 525.018677,693.989746 
	C525.001587,694.005066 524.971802,694.040161 524.654724,693.991821 
	C523.802063,692.761902 523.495361,691.369507 522.660645,690.463562 
	C521.956482,689.699219 520.639526,689.499390 519.593811,689.049622 
	C517.616028,693.661316 514.375732,692.077942 510.982666,691.035950 
	C508.503510,690.274658 505.513855,689.280457 503.290497,690.016724 
	C499.785278,691.177551 495.003967,691.242554 494.064972,696.479736 
	C493.514252,699.551331 492.642120,702.565247 491.914581,705.605103 
	C492.250854,702.360168 492.380920,699.077759 492.961639,695.877197 
	C494.782410,685.842529 496.772919,675.838684 499.123291,665.610229 
	C500.029785,664.814026 500.934326,664.227295 500.929810,663.647766 
	C500.803711,647.605835 500.398102,631.563416 500.509399,615.524231 
	C500.538422,611.346924 502.131805,607.180542 503.006653,603.009094 
	C504.677490,608.435547 506.348328,613.862061 508.009583,619.644287 
	C508.000000,620.000000 507.998535,620.002441 507.998535,620.002441 
	C507.200165,620.087585 506.401794,620.172791 506.168640,620.197632 
	C506.656219,622.961914 507.185944,625.462280 507.522675,627.988281 
	C508.069702,632.091492 511.125458,634.318909 514.589600,632.325989 
	C518.177124,630.262268 521.223938,627.258606 525.245300,624.083252 
	C521.924927,623.856689 518.484985,624.141479 518.313171,623.521118 
	C517.532410,620.702026 517.672302,617.627869 517.413513,613.594055 
	C516.140320,612.810852 513.749207,611.339966 510.382446,609.268860 
	C513.028564,608.734009 514.515747,608.675232 515.779907,608.114136 
	C517.230591,607.470276 519.239929,606.661377 519.693542,605.437439 
	C521.833435,599.663940 523.800232,593.787720 525.186768,587.799500 
	C525.549683,586.232117 523.612122,584.132019 522.738220,582.291565 
	C520.418213,584.252380 518.608276,585.782166 516.538025,587.219849 
	C516.665283,585.172424 517.052856,583.217041 517.781372,581.077271 
M524.507935,628.207520 
	C524.618286,628.766296 524.728638,629.325012 524.891785,630.834229 
	C524.891785,638.605957 524.891785,646.377747 524.891785,654.149475 
	C526.000305,647.457642 526.081970,640.757141 525.950500,634.060791 
	C525.911194,632.057068 525.276428,630.065125 524.507935,628.207520 
M497.926727,684.451660 
	C497.804291,684.181030 497.681885,683.910461 497.559418,683.639832 
	C497.399811,684.018311 497.240173,684.396790 497.080566,684.775208 
	C497.351685,684.786865 497.622772,684.798462 497.926727,684.451660 
M521.945007,620.427124 
	C521.945007,620.427124 522.023315,620.430847 521.945007,620.427124 
M505.102844,687.507324 
	C505.102844,687.507324 504.920593,687.440979 504.920593,687.440979 
	C504.920593,687.440979 505.035126,687.586670 505.102844,687.507324 
M499.494141,689.471313 
	C499.494141,689.471313 499.509827,689.511353 499.494141,689.471313 
z" data-index="5" style="opacity: 1;"></path>
<path fill="#129CCA" opacity="1.000000" stroke="none" d="
M666.934814,438.927612 
	C667.031555,431.462006 661.553406,428.454498 653.991760,431.622467 
	C646.591431,434.722809 638.651428,436.818298 631.754456,440.764038 
	C623.354187,445.569946 613.943726,449.075897 607.903259,457.639923 
	C605.352966,461.255707 600.985657,463.589935 596.856140,466.774078 
	C593.878113,467.413391 591.276123,468.570496 589.142151,467.994293 
	C584.645142,466.780029 582.923523,468.875458 581.457764,472.471008 
	C579.208740,477.987854 573.884766,480.616943 568.967773,478.568115 
	C570.285156,476.122345 571.279785,473.767365 572.913513,472.004852 
	C576.014587,468.659332 579.862793,465.963837 582.727539,462.449585 
	C592.655579,450.270844 605.445923,441.809265 618.685242,433.854462 
	C619.518433,433.353851 620.202759,432.605560 621.200378,431.928925 
	C621.444397,431.885376 621.934509,431.811066 622.296875,431.769958 
	C630.958923,428.483002 639.293396,425.322327 647.541077,421.949554 
	C650.857605,420.593353 653.983765,418.771942 657.489502,417.158936 
	C658.172058,417.128967 658.561707,417.102264 659.228271,417.224518 
	C660.719604,416.954742 661.933960,416.536011 663.448364,416.121704 
	C664.148376,416.114319 664.548279,416.102478 665.291626,416.256348 
	C669.157837,415.676147 672.680725,414.930298 676.578003,414.181946 
	C677.950500,414.152802 678.948486,414.126160 680.317627,414.273407 
	C684.733154,414.618530 688.777649,414.789764 692.822083,414.960968 
	C692.875244,415.711700 692.928467,416.462463 692.747070,417.711884 
	C691.366821,422.160858 690.221069,426.111145 688.742310,430.117493 
	C687.453247,431.271332 686.092102,432.218506 685.617554,433.495209 
	C684.219788,437.255829 683.173462,441.147064 681.634155,445.058655 
	C680.252930,446.869507 678.998047,448.515411 678.243286,450.365387 
	C675.804382,456.343018 674.479370,462.868591 667.924866,466.348175 
	C665.779419,467.487152 664.072571,469.793884 662.685059,471.907745 
	C661.636963,473.504608 661.416138,475.644440 660.794861,477.646301 
	C658.265076,476.572540 656.826660,475.961975 655.175781,475.261261 
	C655.338989,480.253510 651.593872,479.295349 649.088623,479.661407 
	C650.094849,477.595184 650.940186,475.828217 651.968201,474.174927 
	C655.384399,468.680695 660.061157,463.610107 661.971497,457.645813 
	C663.720581,452.184784 664.885681,447.166962 670.938049,444.260590 
	C669.433350,442.256104 668.184082,440.591858 666.934814,438.927612 
z" data-index="6"></path>
<path fill="#14A1CE" opacity="1.000000" stroke="none" d="
M510.019745,329.629578 
	C506.250397,331.562103 502.498352,333.125580 498.571747,334.761810 
	C497.833862,333.775360 497.470367,333.039886 496.892029,332.567322 
	C495.622894,331.530334 494.168182,329.781158 492.932007,329.893555 
	C491.551788,330.019043 490.246735,331.802246 489.056702,333.009613 
	C486.870789,335.227356 484.793152,337.551849 482.411621,339.563965 
	C483.066467,336.882904 483.980072,334.469788 484.893677,332.056702 
	C484.893707,332.056702 484.921478,331.843719 485.177460,331.636719 
	C485.544098,330.986115 485.654755,330.542450 485.765411,330.098816 
	C485.870667,329.863159 485.975891,329.627502 486.318542,329.023285 
	C486.556000,328.654724 486.654144,328.319427 486.654144,328.319427 
	C486.654144,328.319427 486.841461,328.000275 487.300842,327.822083 
	C489.805298,324.444000 491.850403,321.244110 493.895508,318.044220 
	C493.895508,318.044220 493.886353,317.891144 494.243408,317.802551 
	C495.384003,316.871948 496.167572,316.029968 497.219299,314.972229 
	C499.342224,312.629181 501.146149,310.454987 503.060944,308.383270 
	C509.603241,301.304871 515.724304,301.781891 520.901550,309.825867 
	C526.715698,318.859467 532.302490,328.042267 538.242554,336.991302 
	C547.326050,350.675903 551.915894,366.078064 555.637573,381.792725 
	C557.136780,388.123016 557.895996,394.628571 559.022827,401.452942 
	C559.060425,402.923218 559.067261,403.994965 559.074097,405.066681 
	C557.892456,402.526215 556.721008,399.980927 555.527100,397.446259 
	C553.276489,392.668335 551.358582,387.759644 545.867188,385.385040 
	C544.337463,384.723511 543.390930,382.397827 542.487000,380.673065 
	C540.852783,377.554871 538.977112,374.431335 538.150757,371.076385 
	C537.727295,369.357300 539.354309,367.133118 539.983521,365.340027 
	C538.620056,363.931274 536.243835,362.381897 535.164246,360.192993 
	C531.755310,353.281403 529.496765,345.724915 525.515808,339.196838 
	C522.181335,333.728943 517.054626,329.353912 511.956482,323.637207 
	C511.102570,326.138916 510.569794,327.699738 510.019745,329.629578 
z" data-index="7"></path>
<path fill="#156788" opacity="1.000000" stroke="none" d="
M503.213806,602.846680 
	C502.131805,607.180542 500.538422,611.346924 500.509399,615.524231 
	C500.398102,631.563416 500.803711,647.605835 500.929810,663.647766 
	C500.934326,664.227295 500.029785,664.814026 499.352264,665.276794 
	C499.434235,662.303040 499.712860,659.449890 500.251923,655.834961 
	C500.392212,646.798584 500.272064,638.524048 500.151886,630.249451 
	C498.504211,611.496094 494.445984,593.379517 487.214294,575.890137 
	C485.211121,571.045715 482.379730,568.587463 477.831238,567.962585 
	C464.243652,566.095764 451.694946,561.294983 439.602631,555.094238 
	C431.178192,550.774292 422.282501,547.116394 414.530243,541.801880 
	C402.468842,533.533142 390.334656,525.015198 379.796753,514.961975 
	C363.641174,499.549561 351.166168,481.086334 343.078888,460.131134 
	C338.561432,448.425934 335.261749,436.245972 331.570587,424.231598 
	C330.958313,422.238739 331.154572,419.997498 330.943115,417.037964 
	C331.344116,415.022247 331.779205,413.839630 332.404785,412.910797 
	C333.619080,413.889709 334.642853,414.614807 335.699371,415.699219 
	C335.517761,418.192505 335.300781,420.326172 335.090149,422.460510 
	C334.968506,423.693085 334.583862,424.975372 334.793274,426.150513 
	C335.383209,429.461212 336.219238,432.728119 336.984039,436.399658 
	C339.261139,441.902313 341.512482,447.017639 343.785583,452.352844 
	C343.807312,452.572723 343.888916,453.007080 343.888916,453.007080 
	C343.885254,454.283783 343.501312,455.709595 343.934845,456.814789 
	C350.542084,473.658966 359.216064,489.461182 371.759064,502.484985 
	C380.230164,511.280762 390.339813,518.516052 399.847595,526.289062 
	C405.343597,530.782227 410.959137,535.160156 416.790649,539.200623 
	C420.411072,541.709106 424.536530,543.488586 428.861023,545.985718 
	C429.499420,546.610413 429.739532,546.812012 430.007080,546.981018 
	C431.141083,547.510071 432.275085,548.039124 434.081512,548.767151 
	C437.141907,549.666992 439.529846,550.367859 441.917816,551.068665 
	C447.200562,553.014282 452.473816,554.986267 457.768890,556.897644 
	C462.570404,558.630859 467.395691,560.298096 472.853821,562.189087 
	C474.661713,562.274780 475.826324,562.165771 476.990936,562.056763 
	C481.908478,564.156311 486.825989,566.255920 492.098022,568.506836 
	C492.072266,568.711182 491.899567,570.081482 491.873474,572.011414 
	C492.020111,574.050842 492.020111,575.530701 492.020111,577.238403 
	C495.367737,578.255432 497.015442,579.774780 495.471588,583.761658 
	C494.873352,585.306641 497.034180,587.919983 497.938110,590.046631 
	C497.938110,590.046631 497.947845,590.539062 497.960297,591.136108 
	C498.630371,592.832520 499.287994,593.931946 499.945618,595.031311 
	C499.538666,596.284363 499.131714,597.537415 498.850708,598.402588 
	C498.897491,601.769775 505.280243,597.257996 503.213806,602.846680 
M495.511627,590.469543 
	C495.511627,590.469543 495.531311,590.519287 495.511627,590.469543 
z" data-index="8"></path>
<path fill="#156788" opacity="1.000000" stroke="none" d="
M492.152527,705.926941 
	C492.642120,702.565247 493.514252,699.551331 494.064972,696.479736 
	C495.003967,691.242554 499.785278,691.177551 503.290497,690.016724 
	C505.513855,689.280457 508.503510,690.274658 510.982666,691.035950 
	C514.375732,692.077942 517.616028,693.661316 519.593811,689.049622 
	C520.639526,689.499390 521.956482,689.699219 522.660645,690.463562 
	C523.495361,691.369507 523.802063,692.761902 524.686401,694.035889 
	C525.035095,694.128418 525.035706,693.974365 525.035706,693.974365 
	C532.033936,694.004395 535.560181,699.536377 532.706970,706.569946 
	C519.096985,709.730530 505.733185,708.711182 492.152527,705.926941 
z" data-index="9" style="opacity: 1;"></path>
<path fill="#156788" opacity="1.000000" stroke="none" d="
M531.244873,601.048706 
	C530.476807,601.973267 530.025696,602.624390 529.574524,603.275574 
	C532.615356,589.584351 533.406677,575.035339 544.842285,564.314087 
	C545.025818,564.037903 545.093567,563.600342 545.320312,563.353760 
	C545.546997,563.107117 545.970703,563.061707 545.970703,563.061646 
	C546.433350,563.070312 546.896057,563.078979 547.999939,563.084778 
	C549.761353,562.722595 550.881592,562.363281 552.001770,562.003906 
	C558.527161,560.596985 565.150818,559.523926 571.536499,557.642639 
	C574.741211,556.698425 577.512573,554.283142 580.947205,552.463806 
	C581.944824,552.567322 582.475098,552.740173 583.005432,552.912964 
	C583.986938,552.148926 584.968506,551.384888 586.423462,550.321289 
	C588.589478,549.360840 590.281982,548.699951 591.974548,548.039001 
	C594.484070,546.842712 596.993591,545.646423 600.038635,544.121094 
	C601.408447,542.896606 602.242676,542.001099 603.076904,541.105530 
	C608.240845,538.227112 613.404785,535.348755 619.082764,532.130981 
	C620.446472,530.916077 621.296082,530.040588 622.145691,529.165039 
	C622.929016,528.899841 623.712280,528.634644 624.933105,528.038818 
	C625.607178,527.498901 625.817505,527.265991 626.001709,527.009338 
	C629.638367,524.209534 633.392944,521.545593 636.853638,518.543030 
	C638.236694,517.343140 638.971741,515.396362 640.001587,513.395386 
	C640.001343,513.001282 640.056213,513.046143 640.056213,513.046143 
	C642.420898,511.449524 645.315308,510.290314 647.057617,508.179871 
	C654.203552,499.524109 660.998474,490.578613 668.264648,481.212982 
	C669.082886,479.807465 669.559143,478.928711 670.035400,478.049927 
	C670.462830,478.007751 670.890198,477.965546 671.638916,477.947327 
	C666.924866,485.810913 662.785034,494.451935 656.650024,501.307434 
	C646.760254,512.358765 636.462219,523.445312 624.660034,532.276123 
	C611.935547,541.796997 597.469116,549.087097 583.392151,556.661804 
	C576.398499,560.425049 568.672974,562.940674 561.092590,565.461365 
	C556.135376,567.109741 550.760864,567.476074 545.743164,568.982727 
	C543.649841,569.611206 540.980103,571.346008 540.317566,573.201111 
	C537.075989,582.277222 534.422974,591.563477 531.244873,601.048706 
z" data-index="10"></path>
<path fill="#3EB1D8" opacity="1.000000" stroke="none" d="
M558.992065,401.054352 
	C557.895996,394.628571 557.136780,388.123016 555.637573,381.792725 
	C551.915894,366.078064 547.326050,350.675903 538.242554,336.991302 
	C532.302490,328.042267 526.715698,318.859467 520.901550,309.825867 
	C515.724304,301.781891 509.603241,301.304871 503.060944,308.383270 
	C501.146149,310.454987 499.342224,312.629181 497.203186,314.630310 
	C496.848358,314.060242 496.777832,313.616302 496.707275,313.172363 
	C500.817444,307.667908 504.871338,302.120209 509.058167,296.674713 
	C511.723999,293.207397 514.482178,293.371368 517.751587,297.559814 
	C522.957092,304.228699 527.981750,311.045624 532.899597,317.930817 
	C544.455627,334.109558 552.662231,351.952667 557.563354,371.141968 
	C560.896423,384.191956 561.674133,397.660736 560.677368,411.590637 
	C560.415344,412.023682 560.027771,411.996674 560.027771,411.996674 
	C560.027771,411.996674 560.020020,411.981049 560.015991,411.605774 
	C559.967346,410.487030 559.922668,409.743530 559.877991,409.000061 
	C559.881104,408.545319 559.884155,408.090546 559.891235,406.907227 
	C559.594116,404.470520 559.293091,402.762421 558.992065,401.054352 
z" data-index="11"></path>
<path fill="#3EB1D8" opacity="1.000000" stroke="none" d="
M332.214294,412.657013 
	C331.779205,413.839630 331.344116,415.022247 330.954376,416.594788 
	C329.597565,413.366028 328.894348,410.075684 334.518982,410.055725 
	C340.200317,410.035553 345.924561,409.644165 351.552124,410.201477 
	C358.014130,410.841400 364.595917,411.684021 370.764648,413.600586 
	C387.384186,418.764099 403.276733,425.456879 418.196930,434.805573 
	C437.231354,446.732086 452.065308,462.437408 464.377289,480.868378 
	C474.327820,495.764221 482.195099,511.747192 488.539307,528.551086 
	C487.184814,527.474182 485.878632,526.311829 485.226837,524.856384 
	C475.544220,503.234070 464.818359,482.218567 448.611328,464.614380 
	C443.469971,459.029816 437.498444,454.209595 431.731934,448.901611 
	C431.327667,448.573242 431.114319,448.366302 430.761536,447.838562 
	C428.380920,446.037598 426.155792,444.540863 423.715057,443.002258 
	C423.499451,442.960327 423.068878,442.873474 423.012085,442.530945 
	C422.094910,441.041809 421.468567,439.531647 420.338409,438.804169 
	C407.191010,430.341888 393.416351,422.955994 378.255188,418.992584 
	C365.812958,415.739899 353.066223,413.599854 340.385925,411.353485 
	C337.819550,410.898865 334.946167,412.177460 332.214294,412.657013 
z" data-index="12"></path>
<path fill="#2EAED9" opacity="1.000000" stroke="none" d="
M431.906799,449.039581 
	C437.498444,454.209595 443.469971,459.029816 448.611328,464.614380 
	C464.818359,482.218567 475.544220,503.234070 485.226837,524.856384 
	C485.878632,526.311829 487.184814,527.474182 488.484192,528.929443 
	C493.928101,541.961853 499.165131,554.802551 504.182892,567.728394 
	C506.704529,574.224243 508.872467,580.859802 511.096313,587.467163 
	C511.597748,588.956970 511.665558,590.592834 512.015503,592.584473 
	C512.159668,593.955322 512.221313,594.903137 512.283020,595.851013 
	C511.959839,595.949341 511.636658,596.047729 511.313507,596.146057 
	C509.829041,591.783997 508.523590,587.351013 506.828461,583.072449 
	C500.224731,566.403870 493.800568,549.653381 486.696320,533.198181 
	C482.779266,524.125244 477.643005,515.578674 472.972839,506.077026 
	C471.585510,503.900421 470.281708,502.441559 468.977905,500.982697 
	C468.977905,500.982697 468.968140,500.523621 468.956451,499.935516 
	C467.620117,497.572449 466.295441,495.797516 464.970764,494.022583 
	C464.970764,494.022583 464.994476,494.009827 464.968231,493.644440 
	C464.527435,492.030518 464.376038,490.598785 463.655273,489.563446 
	C459.226532,483.201813 455.006195,476.648651 450.054932,470.710876 
	C445.538696,465.294739 440.048706,460.701569 435.274750,455.483246 
	C433.693542,453.754852 433.003998,451.210754 431.906799,449.039581 
z" data-index="13" style="opacity: 1;"></path>
<path fill="#2EAED9" opacity="1.000000" stroke="none" d="
M620.956360,431.972473 
	C620.202759,432.605560 619.518433,433.353851 618.685242,433.854462 
	C605.445923,441.809265 592.655579,450.270844 582.727539,462.449585 
	C579.862793,465.963837 576.014587,468.659332 572.913513,472.004852 
	C571.279785,473.767365 570.285156,476.122345 568.766113,478.844116 
	C566.449219,482.234283 563.811646,484.733887 562.400391,487.798279 
	C559.246948,494.645905 553.342346,499.772736 551.383057,507.494537 
	C550.086426,512.604797 546.517883,517.138611 543.966431,521.930481 
	C542.648865,524.356689 541.331238,526.782898 539.688293,529.572388 
	C538.953308,529.955017 538.543579,529.974426 538.133911,529.993896 
	C537.945251,529.982117 537.756531,529.970398 537.284424,529.967529 
	C541.727844,519.189148 545.766235,508.026886 551.379578,497.722595 
	C556.754944,487.855194 563.484192,478.672913 570.136719,469.568298 
	C576.967590,460.219666 585.778015,452.686859 595.186523,445.033997 
	C597.848755,443.850586 599.820251,442.754211 601.826599,441.725830 
	C608.196228,438.461090 614.578796,435.221680 620.956360,431.972473 
M541.495483,521.556519 
	C541.495483,521.556519 541.461792,521.486511 541.495483,521.556519 
z" data-index="14" style="opacity: 1;"></path>
<path fill="#156788" opacity="1.000000" stroke="none" d="
M553.899292,433.959747 
	C553.899292,433.959747 553.937439,433.472870 554.210205,433.354248 
	C554.976501,433.472473 555.470032,433.709320 555.963623,433.946167 
	C551.245300,446.438293 547.269653,459.280151 541.598083,471.323334 
	C536.010437,483.188202 528.837097,494.323090 522.086670,505.615173 
	C519.441162,510.040588 516.054016,514.022583 513.111572,518.059753 
	C504.719604,514.861084 479.603729,469.252136 475.091003,449.323792 
	C475.199890,448.832275 475.443359,448.630829 475.689880,448.865295 
	C477.385284,452.054077 478.834167,455.008392 480.283051,457.962677 
	C480.503082,458.459473 480.723114,458.956238 481.088074,460.064606 
	C488.643005,476.140228 492.551422,493.680603 508.415741,504.052765 
	C511.572540,506.116699 513.584229,506.744690 516.093262,504.467773 
	C521.543701,499.521576 527.284363,494.891541 530.467285,487.831970 
	C534.281677,479.371796 538.662048,471.166779 542.797363,462.851288 
	C542.920471,462.440979 543.043518,462.030670 543.467407,461.084839 
	C544.781372,458.323334 545.794495,456.097351 546.807617,453.871368 
	C547.585999,451.822327 548.364319,449.773254 549.449585,447.117462 
	C550.759338,443.296692 551.762085,440.082611 552.764893,436.868530 
	C552.764832,436.868530 552.855103,436.420593 553.095825,435.982422 
	C553.524170,435.016052 553.711731,434.487885 553.899292,433.959747 
z" data-index="15" style="opacity: 1;"></path>
<path fill="#3EB1D8" opacity="1.000000" stroke="none" d="
M621.200378,431.928955 
	C614.578796,435.221680 608.196228,438.461090 601.826599,441.725830 
	C599.820251,442.754211 597.848755,443.850586 595.510925,444.908081 
	C602.445801,439.616364 609.433838,433.848450 617.080261,429.152679 
	C631.461731,420.320862 647.150879,414.501312 663.817749,411.720764 
	C671.719727,410.402435 679.751831,409.787933 687.749817,409.180756 
	C689.493774,409.048340 691.343445,410.308777 692.843140,411.386230 
	C688.343384,412.596313 684.144958,413.347931 679.946533,414.099548 
	C678.948486,414.126160 677.950500,414.152802 676.140686,414.143616 
	C671.868713,414.768768 668.408447,415.429718 664.948242,416.090668 
	C664.548279,416.102478 664.148376,416.114319 663.075562,416.100800 
	C661.252258,416.408813 660.101807,416.742188 658.951294,417.075562 
	C658.561707,417.102264 658.172058,417.128967 657.093628,417.195496 
	C647.000366,420.328247 637.524780,423.227539 628.240417,426.646362 
	C625.831177,427.533447 624.020264,430.045441 621.934509,431.811066 
	C621.934509,431.811066 621.444397,431.885376 621.200378,431.928955 
z" data-index="16"></path>
<path fill="#137AA2" opacity="1.000000" stroke="none" d="
M689.075378,430.061432 
	C690.221069,426.111145 691.366821,422.160858 692.798096,418.086304 
	C693.084045,420.079529 693.382690,422.247162 693.036560,424.306366 
	C690.612427,438.727509 685.765747,452.384064 679.171021,465.652802 
	C678.128174,465.476288 677.602356,465.281738 677.182495,464.753174 
	C677.539551,463.292694 677.790527,462.166229 678.062012,460.799561 
	C678.082581,460.559387 678.099487,460.077515 678.360413,459.945862 
	C679.071045,459.203918 679.520691,458.593689 680.017029,457.622131 
	C680.740234,455.211823 681.416687,453.162811 682.387573,450.927795 
	C684.813110,443.848328 686.944214,436.954865 689.075378,430.061432 
z" data-index="17"></path>
<path fill="#148FBA" opacity="1.000000" stroke="none" d="
M484.573334,332.176514 
	C483.980072,334.469788 483.066467,336.882904 482.062408,339.642639 
	C481.379944,341.130402 480.787872,342.271576 480.110626,343.962341 
	C480.025452,344.511932 479.982330,344.969330 479.982330,344.969330 
	C477.177643,351.803894 474.372955,358.638428 471.142578,365.745422 
	C470.716888,366.017853 470.223846,365.980164 470.223846,365.980164 
	C472.541229,359.172791 474.582245,352.253784 477.270905,345.596375 
	C479.136688,340.976624 481.894012,336.716919 484.573334,332.176514 
z" data-index="18"></path>
<path fill="#137AA2" opacity="1.000000" stroke="none" d="
M466.133087,417.976776 
	C465.834686,408.142517 465.536285,398.308228 465.787598,388.536011 
	C466.577850,390.077332 466.818420,391.556671 467.048645,393.351318 
	C467.041595,394.087097 467.044891,394.507507 467.031982,395.392792 
	C467.371368,403.538116 467.726959,411.218597 467.838196,418.785095 
	C467.106934,418.439667 466.620026,418.208221 466.133087,417.976776 
z" data-index="19"></path>
<path fill="#137AA2" opacity="1.000000" stroke="none" d="
M471.055664,420.990692 
	C471.308441,422.107025 471.561249,423.223328 471.863373,424.680634 
	C472.423340,429.151733 472.934021,433.281830 473.114990,437.459595 
	C471.255493,434.008423 469.725677,430.509583 468.195892,427.010773 
	C468.156799,426.844543 468.117676,426.678345 468.027893,425.842438 
	C468.036591,423.744507 468.095917,422.316254 468.515228,420.916504 
	C469.601990,420.960236 470.328827,420.975464 471.055664,420.990692 
z" data-index="20"></path>
<path fill="#137AA2" opacity="1.000000" stroke="none" d="
M556.012756,433.553284 
	C555.470032,433.709320 554.976501,433.472473 554.237427,433.111633 
	C555.727173,426.776062 557.462341,420.564514 559.489868,414.169312 
	C558.542114,420.377228 557.302002,426.768829 556.012756,433.553284 
z" data-index="21"></path>
<path fill="#156788" opacity="1.000000" stroke="none" d="
M468.100586,427.403290 
	C469.725677,430.509583 471.255493,434.008423 473.027466,437.794098 
	C473.424530,438.571594 473.579437,439.062225 473.883789,440.178680 
	C474.503265,443.413269 474.973297,446.022064 475.443359,448.630829 
	C475.443359,448.630829 475.199890,448.832275 475.077881,448.932678 
	C472.639008,441.953979 470.322174,434.874908 468.100586,427.403290 
z" data-index="22"></path>
<path fill="#148FBA" opacity="1.000000" stroke="none" d="
M467.058960,393.035980 
	C466.818420,391.556671 466.577850,390.077332 466.137512,388.283264 
	C465.986053,387.535034 466.034302,387.101624 466.423706,386.153625 
	C467.230042,384.069855 467.695251,382.500610 468.160461,380.931366 
	C468.869904,380.949188 469.579346,380.966980 470.644409,380.992401 
	C471.000000,381.000000 471.002441,381.001648 471.002441,381.001648 
	C470.129456,384.828278 469.256439,388.654877 468.190796,392.741394 
	C467.998169,393.001312 467.983856,393.014252 467.752625,393.019226 
	C467.521393,393.024231 467.058960,393.035980 467.058960,393.035980 
z" data-index="23"></path>
<path fill="#2EAED9" opacity="1.000000" stroke="none" d="
M680.317627,414.273438 
	C684.144958,413.347931 688.343384,412.596313 692.978638,411.749603 
	C693.415405,411.654510 693.371277,411.744720 693.429932,411.940002 
	C693.561768,412.435608 693.654297,412.729828 693.766113,413.018005 
	C693.526978,413.491394 693.287842,413.964783 692.935425,414.699585 
	C688.777649,414.789764 684.733154,414.618530 680.317627,414.273438 
z" data-index="24"></path>
<path fill="#156788" opacity="1.000000" stroke="none" d="
M677.076538,465.087219 
	C677.602356,465.281738 678.128174,465.476288 678.877075,465.844116 
	C676.948120,469.936737 674.796082,473.856079 672.307922,477.869659 
	C672.015808,476.929626 672.059875,475.895355 672.377808,474.259094 
	C673.466797,472.134064 674.281738,470.610992 675.274048,468.821899 
	C675.993103,467.399628 676.534851,466.243439 677.076538,465.087219 
z" data-index="25"></path>
<path fill="#137AA2" opacity="1.000000" stroke="none" d="
M500.097900,630.690125 
	C500.272064,638.524048 500.392212,646.798584 500.336090,655.416992 
	C500.121185,647.550781 500.082550,639.340759 500.097900,630.690125 
z" data-index="26"></path>
<path fill="#137AA2" opacity="1.000000" stroke="none" d="
M468.202209,380.577637 
	C467.695251,382.500610 467.230042,384.069855 466.476227,385.830383 
	C466.804321,381.944489 467.421021,377.867310 468.114014,373.378021 
	C468.208160,375.385254 468.226044,377.804596 468.202209,380.577637 
z" data-index="27"></path>
<path fill="#148FBA" opacity="1.000000" stroke="none" d="
M493.584839,318.163757 
	C491.850403,321.244110 489.805298,324.444000 487.454407,327.718872 
	C489.190460,324.623688 491.232300,321.453491 493.584839,318.163757 
z" data-index="28"></path>
<path fill="#2EAED9" opacity="1.000000" stroke="none" d="
M535.655151,532.223389 
	C535.191772,534.558228 534.403931,537.061462 533.343628,539.760193 
	C533.824280,537.434387 534.577515,534.913086 535.655151,532.223389 
z" data-index="29"></path>
<path fill="#156788" opacity="1.000000" stroke="none" d="
M468.155273,420.888000 
	C468.095917,422.316254 468.036591,423.744507 467.947296,425.599304 
	C467.269531,423.605865 466.621674,421.185852 466.053467,418.371307 
	C466.620026,418.208221 467.106934,418.439667 467.846741,419.118164 
	C468.118164,420.006134 468.136719,420.447052 468.155273,420.888000 
z" data-index="30"></path>
<path fill="#148FBA" opacity="1.000000" stroke="none" d="
M496.431641,313.290222 
	C496.777832,313.616302 496.848358,314.060242 496.934998,314.846069 
	C496.167572,316.029968 495.384003,316.871948 494.319885,317.797241 
	C494.744873,316.389709 495.450439,314.898895 496.431641,313.290222 
z" data-index="31"></path>
<path fill="#2EAED9" opacity="1.000000" stroke="none" d="
M532.658630,540.175293 
	C532.513733,541.539978 532.043762,543.046570 531.312256,544.749512 
	C531.478394,543.402954 531.905945,541.860046 532.658630,540.175293 
z" data-index="32"></path>
<path fill="#137AA2" opacity="1.000000" stroke="none" d="
M470.121826,366.250732 
	C470.223846,365.980164 470.716888,366.017853 470.963165,366.053040 
	C470.807526,366.530548 470.405640,366.972870 469.921753,367.243042 
	C469.899780,366.887634 469.959778,366.704468 470.121826,366.250732 
z" data-index="33"></path>

<path fill="#2EAED9" opacity="1.000000" stroke="none" d="
M536.707153,530.094727 
	C536.776001,530.452026 536.575562,530.905151 536.269165,531.570923 
	C536.254761,531.252563 536.346313,530.721619 536.707153,530.094727 
z" data-index="35"></path>

<path fill="#137AA2" opacity="1.000000" stroke="none" d="
M560.022949,412.245850 
	C560.027771,411.996674 560.415344,412.023682 560.606018,412.060608 
	C560.922058,412.443756 560.824036,412.706818 560.279053,412.939331 
	C560.055603,412.991974 560.018188,412.494995 560.022949,412.245850 
z" data-index="37"></path>
<path fill="#3EB1D8" opacity="1.000000" stroke="none" d="
M693.824829,412.757019 
	C693.654297,412.729828 693.561768,412.435608 693.381836,411.925476 
	C693.477966,411.975769 693.680786,412.235901 693.824829,412.757019 
z" data-index="38"></path>

<path fill="#129CCA" opacity="1.000000" stroke="none" d="
M431.731934,448.901611 
	C433.003998,451.210754 433.693542,453.754852 435.274750,455.483246 
	C440.048706,460.701569 445.538696,465.294739 450.054932,470.710876 
	C455.006195,476.648651 459.226532,483.201813 463.655273,489.563446 
	C464.376038,490.598785 464.527435,492.030518 464.953735,493.654480 
	C462.637878,491.831757 459.802185,489.966003 458.097290,487.360413 
	C455.271118,483.041199 452.257843,480.633911 447.041046,483.151093 
	C446.748444,483.292297 446.175049,482.851562 445.269409,482.503967 
	C445.986023,481.005585 446.642181,479.633636 447.342987,478.168304 
	C440.097778,474.628876 435.256348,467.774200 427.438019,464.686676 
	C422.943878,462.911926 419.193451,458.672791 415.748901,454.950165 
	C409.757141,448.474731 402.786591,444.087585 394.360474,441.352081 
	C386.113007,438.674591 378.215546,434.922577 370.149139,431.680267 
	C368.807251,431.140930 367.403412,430.732452 365.999573,430.376160 
	C363.897278,429.842590 361.769653,429.408813 359.147552,428.818939 
	C358.477936,430.340118 357.394745,432.800873 355.896606,435.694489 
	C354.819061,437.107635 353.359741,438.474182 353.618469,439.007782 
	C355.917969,443.750793 358.521332,448.346466 361.225708,453.284119 
	C363.330627,457.411774 365.107269,461.317810 367.191284,465.052277 
	C370.377899,470.762573 373.776642,476.354462 376.748108,481.909760 
	C372.581909,478.261658 368.752838,474.700500 364.923828,471.139282 
	C364.923828,471.139282 356.102997,463.494629 356.402008,463.753784 
	C356.402008,461.696411 356.952271,459.674744 356.303314,458.170288 
	C353.942932,452.697998 350.896240,447.514069 348.664978,441.996277 
	C347.004852,437.890900 345.619446,433.495483 345.187592,429.122986 
	C344.761078,424.804108 345.685822,420.351776 346.477173,415.954773 
	C350.249695,416.052521 353.610901,415.827606 356.868103,416.308014 
	C376.268768,419.169617 394.239594,425.975403 410.960297,436.199493 
	C414.888184,438.601257 419.027069,440.657990 423.068878,442.873474 
	C423.068878,442.873474 423.499451,442.960327 423.832397,443.328156 
	C426.415894,445.178284 428.666473,446.660553 430.917023,448.142822 
	C431.114319,448.366302 431.327667,448.573242 431.731934,448.901611 
z" data-index="40" style="opacity: 1;"></path>
<path fill="#1194C2" opacity="1.000000" stroke="none" d="
M346.017792,415.958008 
	C345.685822,420.351776 344.761078,424.804108 345.187592,429.122986 
	C345.619446,433.495483 347.004852,437.890900 348.664978,441.996277 
	C350.896240,447.514069 353.942932,452.697998 356.303314,458.170288 
	C356.952271,459.674744 356.402008,461.696411 356.402008,463.753784 
	C356.102997,463.494629 364.923828,471.139282 364.923828,471.139282 
	C368.752838,474.700500 372.581909,478.261658 376.757812,482.110535 
	C377.104706,482.398224 377.093811,482.800171 377.146301,483.128937 
	C377.853973,484.290314 378.509125,485.122925 379.368042,486.154541 
	C380.093170,487.145081 380.614502,487.936646 381.176636,489.099121 
	C382.503052,490.677185 383.788696,491.884369 385.074310,493.091553 
	C384.158752,493.794739 383.272797,495.040619 382.321777,495.092468 
	C380.080475,495.214661 377.808167,494.767639 374.841980,494.483124 
	C373.378357,492.073883 371.397827,488.813751 369.158661,485.127899 
	C369.433594,484.809387 370.145691,483.984344 370.852234,483.155029 
	C370.794983,483.005646 370.754395,482.738678 370.689941,482.732758 
	C365.429474,482.251892 363.230927,477.337952 359.397766,474.774384 
	C353.555878,470.867432 349.970337,464.970886 347.753448,458.225586 
	C347.170319,456.451233 345.601257,455.000946 344.186951,453.204468 
	C343.888916,453.007080 343.807312,452.572723 343.936127,452.090179 
	C343.046204,448.701447 342.209930,445.713348 340.953247,442.913971 
	C339.870361,440.501740 338.308411,438.304535 336.958282,436.012268 
	C336.219238,432.728119 335.383209,429.461212 334.793274,426.150513 
	C334.583862,424.975372 334.968506,423.693085 335.090149,422.460510 
	C335.300781,420.326172 335.517761,418.192505 336.132080,415.606140 
	C337.690369,415.099487 338.848633,415.045166 340.085876,415.214233 
	C340.784302,415.604187 341.403778,415.770813 342.422363,415.934387 
	C343.886963,415.940247 344.952362,415.949158 346.017792,415.958008 
z" data-index="41"></path>
<path fill="#3EB1D8" opacity="1.000000" stroke="none" d="
M381.135803,488.728210 
	C380.614502,487.936646 380.093170,487.145081 379.304535,485.828186 
	C378.389404,484.468628 377.741608,483.634399 377.093811,482.800171 
	C377.093811,482.800171 377.104706,482.398224 377.095032,482.197449 
	C373.776642,476.354462 370.377899,470.762573 367.191284,465.052277 
	C365.107269,461.317810 363.330627,457.411774 361.208801,452.890411 
	C360.439270,450.162170 359.607544,448.153229 359.399628,446.081665 
	C359.229736,444.389008 359.804474,442.621643 360.049072,440.887390 
	C365.175323,450.679779 369.766998,460.799713 375.528534,470.202820 
	C392.497009,497.895966 416.092102,518.351257 445.625183,531.774048 
	C451.146729,534.283569 457.339569,535.316040 463.642303,536.989380 
	C464.497803,538.246338 464.933624,539.544067 465.369415,540.841797 
	C463.854034,541.040039 462.264404,541.626221 460.839233,541.353333 
	C458.120117,540.832581 455.494843,539.822021 452.150421,538.848328 
	C450.648499,538.435547 449.826782,538.189209 449.005035,537.942932 
	C447.882599,537.407898 446.760162,536.872925 445.021790,536.045654 
	C440.939056,534.149170 437.472168,532.544922 434.005310,530.940735 
	C432.905853,530.311096 431.806396,529.681458 430.148956,528.831970 
	C429.040222,528.418518 428.489502,528.224854 427.938782,528.031189 
	C426.528809,527.100098 425.118835,526.169006 423.142334,525.002136 
	C422.041809,524.495300 421.507751,524.224182 420.973724,523.953125 
	C420.215179,523.105286 419.456635,522.257507 418.113922,521.250549 
	C417.331085,521.050476 417.132477,521.009583 416.933838,520.968689 
	C414.501984,519.112427 412.070129,517.256165 409.099548,515.186462 
	C408.389801,514.959412 408.218750,514.945740 408.047668,514.932129 
	C405.940765,513.001770 403.833832,511.071442 401.166046,508.796234 
	C398.048431,505.946075 395.491669,503.440826 392.934937,500.935547 
	C390.838043,498.401459 388.741150,495.867371 386.261047,492.834167 
	C384.297180,491.132751 382.716492,489.930481 381.135803,488.728210 
z" data-index="42"></path>
<path fill="#137AA2" opacity="1.000000" stroke="none" d="
M497.962158,589.627808 
	C497.034180,587.919983 494.873352,585.306641 495.471588,583.761658 
	C497.015442,579.774780 495.367737,578.255432 492.020111,577.238403 
	C492.020111,575.530701 492.020111,574.050842 492.020660,572.256287 
	C493.308868,572.003235 495.018127,571.566040 495.799500,572.226562 
	C497.623657,573.768555 499.001923,575.837891 500.823608,578.006592 
	C500.024109,581.163147 499.005157,585.186035 497.962158,589.627808 
z" data-index="43"></path>
<path fill="#1194C2" opacity="1.000000" stroke="none" d="
M392.591827,500.848755 
	C395.491669,503.440826 398.048431,505.946075 400.829651,508.698181 
	C399.689667,509.348053 397.792267,510.527100 397.053040,510.019470 
	C393.880585,507.840973 391.073151,505.136627 388.082001,502.685852 
	C386.727966,501.576447 385.255585,500.611511 383.836884,499.581055 
	C384.049072,499.024017 384.261292,498.466980 384.473480,497.909973 
	C387.065216,498.860626 389.656982,499.811279 392.591827,500.848755 
z" data-index="44"></path>
<path fill="#14A1CE" opacity="1.000000" stroke="none" d="
M360.032501,440.580505 
	C359.804474,442.621643 359.229736,444.389008 359.399628,446.081665 
	C359.607544,448.153229 360.439270,450.162170 361.018188,452.591919 
	C358.521332,448.346466 355.917969,443.750793 353.618469,439.007782 
	C353.359741,438.474182 354.819061,437.107635 355.813660,436.008911 
	C356.634247,436.222321 357.122833,436.554199 357.945679,437.287354 
	C358.780914,438.149902 359.281891,438.611206 359.782837,439.072540 
	C359.860535,439.472900 359.938202,439.873260 360.032501,440.580505 
z" data-index="45"></path>
<path fill="#1194C2" opacity="1.000000" stroke="none" d="
M433.879059,531.251831 
	C437.472168,532.544922 440.939056,534.149170 444.728271,535.933289 
	C442.663635,536.527161 439.921967,537.848694 437.991547,537.094299 
	C436.140747,536.371033 435.131775,533.493652 433.879059,531.251831 
z" data-index="46"></path>
<path fill="#137AA2" opacity="1.000000" stroke="none" d="
M441.886139,550.762634 
	C439.529846,550.367859 437.141907,549.666992 434.352814,548.927002 
	C436.179962,547.714294 438.408264,546.540710 441.146210,545.098755 
	C441.488434,547.687561 441.671448,549.072083 441.886139,550.762634 
z" data-index="47"></path>
<path fill="#1194C2" opacity="1.000000" stroke="none" d="
M420.716797,524.092651 
	C421.507751,524.224182 422.041809,524.495300 422.830292,524.929504 
	C423.235748,526.418335 423.386780,527.744019 423.600250,529.618103 
	C420.199799,528.474792 418.755219,527.154297 420.716797,524.092651 
z" data-index="48"></path>
<path fill="#129CCA" opacity="1.000000" stroke="none" d="
M464.968140,494.407867 
	C466.295441,495.797516 467.620117,497.572449 468.957001,499.705902 
	C467.634674,498.307312 466.300079,496.550232 464.968140,494.407867 
z" data-index="49"></path>
<path fill="#1194C2" opacity="1.000000" stroke="none" d="
M427.835297,528.328247 
	C428.489502,528.224854 429.040222,528.418518 429.820190,528.797974 
	C430.215576,530.316528 430.381683,531.649292 430.547821,532.981995 
	C429.990509,533.118652 429.433228,533.255310 428.875946,533.391968 
	C428.494568,531.803040 428.113190,530.214172 427.835297,528.328247 
z" data-index="50"></path>
<path fill="#129CCA" opacity="1.000000" stroke="none" d="
M468.987183,501.350464 
	C470.281708,502.441559 471.585510,503.900421 472.885101,505.737183 
	C471.586090,504.649445 470.291290,503.183838 468.987183,501.350464 
z" data-index="51"></path>
<path fill="#129CCA" opacity="1.000000" stroke="none" d="
M381.176605,489.099121 
	C382.716492,489.930481 384.297180,491.132751 385.969604,492.674316 
	C386.061401,493.013580 385.567230,493.053802 385.320770,493.072693 
	C383.788696,491.884369 382.503052,490.677185 381.176605,489.099121 
z" data-index="52"></path>
<path fill="#1194C2" opacity="1.000000" stroke="none" d="
M407.749054,514.977417 
	C408.218750,514.945740 408.389801,514.959412 408.815186,515.018127 
	C408.474274,515.867615 407.879028,516.671997 407.283752,517.476318 
	C406.821747,517.134216 406.359802,516.792114 405.897858,516.450012 
	C406.415375,515.974243 406.932922,515.498474 407.749054,514.977417 
z" data-index="53"></path>
<path fill="#137AA2" opacity="1.000000" stroke="none" d="
M500.076080,594.728394 
	C499.287994,593.931946 498.630371,592.832520 497.967957,591.382202 
	C498.710968,592.162781 499.458771,593.294128 500.076080,594.728394 
z" data-index="54"></path>
<path fill="#1194C2" opacity="1.000000" stroke="none" d="
M416.709167,521.077637 
	C417.132477,521.009583 417.331085,521.050476 417.820923,521.184814 
	C417.526245,521.893860 416.940369,522.509583 416.354492,523.125244 
	C416.397858,522.479065 416.441193,521.832825 416.709167,521.077637 
z" data-index="55"></path>
<path fill="#1194C2" opacity="1.000000" stroke="none" d="
M449.039795,538.257507 
	C449.826782,538.189209 450.648499,538.435547 451.759247,538.829712 
	C450.737030,541.188904 449.768982,540.883789 449.039795,538.257507 
z" data-index="56"></path>
<path fill="#137AA2" opacity="1.000000" stroke="none" d="
M521.270752,590.689697 
	C520.728821,590.442932 520.338379,590.036499 519.947937,589.630066 
	C520.312805,589.396179 520.677734,589.162292 521.042664,588.928467 
	C521.169189,589.462280 521.295654,589.996155 521.270752,590.689697 
z" data-index="57"></path>
<path fill="#137AA2" opacity="1.000000" stroke="none" d="
M476.734253,561.872437 
	C475.826324,562.165771 474.661713,562.274780 473.246277,562.215210 
	C474.156128,561.927185 475.316833,561.807617 476.734253,561.872437 
z" data-index="58"></path>
<path fill="#137AA2" opacity="1.000000" stroke="none" d="
M508.001831,619.998779 
	C508.463623,620.072266 508.923553,620.147034 509.383514,620.221802 
	C509.359314,620.327820 509.335114,620.433777 509.310913,620.539795 
	C508.974365,620.448730 508.637817,620.357727 508.149902,620.134521 
	C507.998535,620.002441 508.000000,620.000000 508.001831,619.998779 
z" data-index="59"></path>
<path fill="#3EB1D8" opacity="1.000000" stroke="none" d="
M359.823486,438.787445 
	C359.281891,438.611206 358.780914,438.149902 358.193939,437.448425 
	C358.497864,437.425903 358.887817,437.643524 359.500122,437.902588 
	C359.769714,438.130157 359.816956,438.316254 359.823486,438.787445 
z" data-index="60"></path>
<path fill="#137AA2" opacity="1.000000" stroke="none" d="
M513.506958,623.504761 
	C513.485779,623.511414 513.528198,623.498108 513.506958,623.504761 
z" data-index="61"></path>
<path fill="#137AA2" opacity="1.000000" stroke="none" d="
M516.509644,625.507385 
	C516.487427,625.515442 516.531921,625.499329 516.509644,625.507385 
z" data-index="62"></path>
<path fill="#137AA2" opacity="1.000000" stroke="none" d="
M516.491821,601.489441 
	C516.515503,601.480347 516.468201,601.498535 516.491821,601.489441 
z" data-index="63"></path>
<path fill="#137AA2" opacity="1.000000" stroke="none" d="
M521.488708,594.511414 
	C521.479065,594.486755 521.498352,594.536072 521.488708,594.511414 
z" data-index="64"></path>
<path fill="#156788" opacity="1.000000" stroke="none" d="
M483.507080,564.515503 
	C483.483887,564.523560 483.530243,564.507507 483.507080,564.515503 
z" data-index="65"></path>
<path fill="#137AA2" opacity="1.000000" stroke="none" d="
M429.852692,546.804199 
	C429.739532,546.812012 429.499420,546.610413 429.141968,546.190063 
	C429.248688,546.191833 429.482391,546.399658 429.852692,546.804199 
z" data-index="66"></path>
<path fill="#156788" opacity="1.000000" stroke="none" d="
M431.495789,544.504517 
	C431.477905,544.510376 431.513641,544.498596 431.495789,544.504517 
z" data-index="67"></path>
<path fill="#129CCA" opacity="1.000000" stroke="none" d="
M449.510010,493.492126 
	C449.518829,493.514618 449.501190,493.469635 449.510010,493.492126 
z" data-index="68"></path>

<path fill="#1194C2" opacity="1.000000" stroke="none" d="
M544.138428,522.221802 
	C546.517883,517.138611 550.086426,512.604797 551.383057,507.494537 
	C553.342346,499.772736 559.246948,494.645905 562.400391,487.798279 
	C563.811646,484.733887 566.449219,482.234283 568.731934,479.202393 
	C573.884766,480.616943 579.208740,477.987854 581.457764,472.471008 
	C582.923523,468.875458 584.645142,466.780029 589.142151,467.994293 
	C591.276123,468.570496 593.878113,467.413391 596.649048,467.039307 
	C592.661377,471.939728 588.085144,476.676910 583.997803,481.803802 
	C581.324524,485.157013 579.189087,488.981598 577.118591,492.762543 
	C574.200317,498.091400 571.782837,503.701080 568.745972,508.956543 
	C565.875610,513.923889 562.481750,518.588745 559.158447,523.693359 
	C558.998779,524.000122 558.982056,524.009766 558.982056,524.009766 
	C555.796814,523.791748 552.611572,523.573792 549.220581,523.341736 
	C549.220581,523.770996 549.220581,525.416748 549.220581,528.655029 
	C547.004272,525.882690 545.657349,524.197937 544.138428,522.221802 
z" data-index="70" style="opacity: 1;"></path>
<path fill="#14A1CE" opacity="1.000000" stroke="none" d="
M630.023071,495.963593 
	C636.835205,486.987122 644.242554,478.388794 650.264526,468.910370 
	C654.791382,461.785309 657.470825,453.497620 661.124329,445.799469 
	C662.144714,443.649353 663.703125,441.754608 665.087097,439.385590 
	C665.554504,439.008362 665.949585,438.988220 666.639709,438.947845 
	C668.184082,440.591858 669.433350,442.256104 670.938049,444.260590 
	C664.885681,447.166962 663.720581,452.184784 661.971497,457.645813 
	C660.061157,463.610107 655.384399,468.680695 651.968201,474.174927 
	C650.940186,475.828217 650.094849,477.595184 648.933594,479.962280 
	C643.928955,486.227814 639.112976,491.805176 634.427612,497.490204 
	C633.660828,498.420624 633.469788,499.825562 633.012634,501.011169 
	C631.922791,501.024445 630.832886,501.037720 629.353027,500.634094 
	C628.974060,499.135254 628.985168,498.053314 628.996277,496.971405 
	C628.996277,496.971405 629.015564,497.021545 629.170166,496.848816 
	C629.560852,496.441833 629.793640,496.204315 630.023071,495.963593 
z" data-index="71"></path>
<path fill="#1194C2" opacity="1.000000" stroke="none" d="
M633.389893,501.016357 
	C633.469788,499.825562 633.660828,498.420624 634.427612,497.490204 
	C639.112976,491.805176 643.928955,486.227814 648.856323,480.313660 
	C651.593872,479.295349 655.338989,480.253510 655.175781,475.261261 
	C656.826660,475.961975 658.265076,476.572540 660.794861,477.646301 
	C661.416138,475.644440 661.636963,473.504608 662.685059,471.907745 
	C664.072571,469.793884 665.779419,467.487152 667.924866,466.348175 
	C674.479370,462.868591 675.804382,456.343018 678.243286,450.365387 
	C678.998047,448.515411 680.252930,446.869507 681.638062,445.494324 
	C682.029236,447.610260 682.061218,449.362030 682.093201,451.113800 
	C681.416687,453.162811 680.740234,455.211823 679.747925,457.743958 
	C678.987976,458.843903 678.543762,459.460724 678.099487,460.077515 
	C678.099487,460.077515 678.082581,460.559387 677.747070,460.920166 
	C675.620667,463.873688 673.829834,466.466431 671.913818,469.305176 
	C671.547729,470.048279 671.306885,470.545319 671.065979,471.042389 
	C667.599609,474.892975 663.172791,478.018433 661.160950,482.786102 
	C658.267212,485.258667 655.345459,487.755188 651.790649,490.792572 
	C644.986755,487.004120 643.526123,494.822235 640.763184,498.528992 
	C638.451782,501.630157 636.360291,501.002563 633.389893,501.016357 
z" data-index="72"></path>
<path fill="#3EB1D8" opacity="1.000000" stroke="none" d="
M628.648193,497.016968 
	C628.985168,498.053314 628.974060,499.135254 628.944336,500.624268 
	C627.830566,501.934998 626.735352,502.838654 625.037231,503.976074 
	C620.621765,507.812347 616.809265,511.414825 612.996765,515.017273 
	C612.996765,515.017273 613.003723,515.004517 612.694580,515.087280 
	C611.565552,516.112976 610.745667,517.055969 609.925720,517.998901 
	C609.451172,518.240601 608.976624,518.482239 607.997314,518.974060 
	C606.947571,519.794250 606.402527,520.364380 605.857544,520.934509 
	C604.392334,521.787903 602.927124,522.641357 600.896240,523.809143 
	C598.591248,525.447998 596.851929,526.772522 595.112610,528.097046 
	C595.112610,528.097046 595.076843,528.085815 594.701660,528.120239 
	C590.194763,530.433411 586.062927,532.712219 581.931152,534.990967 
	C581.533325,535.025757 581.135559,535.060608 580.103333,535.133179 
	C578.609253,535.760071 577.749634,536.349182 576.889954,536.938232 
	C573.277344,538.072693 569.670715,539.226746 566.049622,540.333557 
	C564.159729,540.911255 562.232971,541.878723 560.343262,541.832581 
	C557.130920,541.754272 556.952026,540.235779 559.620972,538.093872 
	C566.084961,535.848755 572.599548,534.405151 578.532410,531.690247 
	C596.125427,523.639893 612.491272,513.667053 625.540527,498.995605 
	C626.266785,498.179047 627.371521,497.699158 628.648193,497.016968 
z" data-index="73" style="opacity: 1;"></path>
<path fill="#14A1CE" opacity="1.000000" stroke="none" d="
M613.355713,514.988037 
	C616.809265,511.414825 620.621765,507.812347 624.791138,504.160828 
	C621.336975,507.727417 617.525818,511.343079 613.355713,514.988037 
z" data-index="74"></path>
<path fill="#14A1CE" opacity="1.000000" stroke="none" d="
M582.301575,534.925659 
	C586.062927,532.712219 590.194763,530.433411 594.700439,528.138977 
	C590.940247,530.368958 586.806152,532.614624 582.301575,534.925659 
z" data-index="75"></path>
<path fill="#137AA2" opacity="1.000000" stroke="none" d="
M591.843994,547.752502 
	C590.281982,548.699951 588.589478,549.360840 586.557983,550.036865 
	C585.935608,549.491638 585.652161,548.931274 585.368713,548.370972 
	C587.483643,548.069336 589.598572,547.767639 591.843994,547.752502 
z" data-index="76"></path>
<path fill="#1194C2" opacity="1.000000" stroke="none" d="
M559.005493,523.993958 
	C559.579590,524.921936 560.146973,525.856140 560.714355,526.790344 
	C559.937561,527.227844 559.160767,527.665283 558.383911,528.102722 
	C558.447021,526.892944 558.510071,525.683105 558.777588,524.241577 
	C558.982056,524.009766 558.998779,524.000122 559.005493,523.993958 
z" data-index="77"></path>
<path fill="#14A1CE" opacity="1.000000" stroke="none" d="
M595.478516,528.078369 
	C596.851929,526.772522 598.591248,525.447998 600.671997,524.031738 
	C599.290405,525.313232 597.567383,526.686462 595.478516,528.078369 
z" data-index="78"></path>
<path fill="#137AA2" opacity="1.000000" stroke="none" d="
M671.189026,471.339294 
	C671.306885,470.545319 671.547729,470.048279 672.160156,469.379181 
	C673.386658,469.167419 674.241699,469.127655 675.096741,469.087921 
	C674.281738,470.610992 673.466797,472.134064 672.413208,473.871765 
	C671.887085,473.269653 671.599548,472.452911 671.189026,471.339294 
z" data-index="79"></path>
<path fill="#137AA2" opacity="1.000000" stroke="none" d="
M551.775757,561.800415 
	C550.881592,562.363281 549.761353,562.722595 548.346802,563.069824 
	C548.250549,560.254089 549.592896,560.189941 551.775757,561.800415 
z" data-index="80"></path>
<path fill="#137AA2" opacity="1.000000" stroke="none" d="
M602.732178,541.095337 
	C602.242676,542.001099 601.408447,542.896606 600.278748,543.893677 
	C600.784668,543.025146 601.586121,542.055176 602.732178,541.095337 
z" data-index="81"></path>
<path fill="#14A1CE" opacity="1.000000" stroke="none" d="
M610.250732,517.921021 
	C610.745667,517.055969 611.565552,516.112976 612.701782,515.085571 
	C612.203918,515.948425 611.389771,516.895752 610.250732,517.921021 
z" data-index="82"></path>
<path fill="#137AA2" opacity="1.000000" stroke="none" d="
M621.818970,529.211365 
	C621.296082,530.040588 620.446472,530.916077 619.281311,531.857910 
	C619.807861,531.035400 620.650024,530.146545 621.818970,529.211365 
z" data-index="83"></path>
<path fill="#137AA2" opacity="1.000000" stroke="none" d="
M527.992676,564.993530 
	C528.261475,563.885071 528.530334,562.776550 528.799133,561.668091 
	C529.170715,561.811768 529.542236,561.955505 529.913818,562.099182 
	C529.414612,562.944214 528.915405,563.789246 528.208130,564.817139 
	C528.000000,565.000000 527.992676,564.993530 527.992676,564.993530 
z" data-index="84"></path>
<path fill="#14A1CE" opacity="1.000000" stroke="none" d="
M577.224609,536.925720 
	C577.749634,536.349182 578.609253,535.760071 579.805542,535.165710 
	C579.281189,535.744629 578.420227,536.328918 577.224609,536.925720 
z" data-index="85"></path>
<path fill="#137AA2" opacity="1.000000" stroke="none" d="
M669.739807,478.180115 
	C669.559143,478.928711 669.082886,479.807465 668.379761,480.888489 
	C668.583374,480.163910 669.013794,479.237091 669.739807,478.180115 
z" data-index="86"></path>
<path fill="#137AA2" opacity="1.000000" stroke="none" d="
M625.841797,526.904907 
	C625.817505,527.265991 625.607178,527.498901 625.185425,527.854004 
	C625.227356,527.600037 625.454651,527.200256 625.841797,526.904907 
z" data-index="87"></path>
<path fill="#137AA2" opacity="1.000000" stroke="none" d="
M528.003662,565.003662 
	C527.733582,565.368103 527.459839,565.728882 527.186096,566.089722 
	C527.329407,565.767456 527.472656,565.445190 527.804321,565.058228 
	C527.992676,564.993530 528.000000,565.000000 528.003662,565.003662 
z" data-index="88"></path>
<path fill="#137AA2" opacity="1.000000" stroke="none" d="
M529.966797,572.020264 
	C529.388611,571.640869 528.842651,571.233032 528.296692,570.825256 
	C528.463318,570.660339 528.629883,570.495422 528.796509,570.330566 
	C529.158630,570.719421 529.520813,571.108276 529.971863,571.714783 
	C530.060791,571.932434 529.998962,571.991943 529.966797,572.020264 
z" data-index="89"></path>
<path fill="#137AA2" opacity="1.000000" stroke="none" d="
M522.222778,577.218994 
	C522.216675,577.453613 522.107117,577.665771 521.941589,577.816345 
	C521.896790,577.857056 521.682617,577.711487 521.546204,577.651367 
	C521.730164,577.492004 521.914185,577.332642 522.222778,577.218994 
z" data-index="90"></path>
<path fill="#1194C2" opacity="1.000000" stroke="none" d="
M542.148254,532.201782 
	C541.957642,532.193298 541.843567,532.116394 541.729492,532.039551 
	C541.894592,532.070801 542.059692,532.102112 542.148254,532.201782 
z" data-index="91"></path>
<path fill="#14A1CE" opacity="1.000000" stroke="none" d="
M606.155518,520.852600 
	C606.402527,520.364380 606.947571,519.794250 607.783752,519.135132 
	C607.534424,519.620972 606.993958,520.195801 606.155518,520.852600 
z" data-index="92"></path>
<path fill="#1194C2" opacity="1.000000" stroke="none" d="
M538.189941,530.213989 
	C538.543579,529.974426 538.953308,529.955017 539.671631,529.936890 
	C539.402161,530.103455 538.824097,530.268738 538.189941,530.213989 
z" data-index="93"></path>
<path fill="#137AA2" opacity="1.000000" stroke="none" d="
M530.464111,567.043335 
	C530.434509,567.017456 530.493774,567.069153 530.464111,567.043335 
z" data-index="94"></path>
<path fill="#137AA2" opacity="1.000000" stroke="none" d="
M539.426636,563.013550 
	C539.428650,562.971680 539.424622,563.055420 539.426636,563.013550 
z" data-index="95"></path>
<path fill="#137AA2" opacity="1.000000" stroke="none" d="
M570.038208,552.535217 
	C570.015137,552.560608 570.061218,552.509827 570.038208,552.535217 
z" data-index="96"></path>
<path fill="#137AA2" opacity="1.000000" stroke="none" d="
M582.772705,552.758240 
	C582.475098,552.740173 581.944824,552.567322 581.188293,552.225220 
	C581.488037,552.238525 582.013977,552.421021 582.772705,552.758240 
z" data-index="97"></path>
<path fill="#137AA2" opacity="1.000000" stroke="none" d="
M545.867188,562.987122 
	C545.970703,563.061707 545.546997,563.107117 545.336243,563.132935 
	C545.279785,562.910034 545.492493,562.827942 545.867188,562.987122 
z" data-index="98"></path>
<path fill="#137AA2" opacity="1.000000" stroke="none" d="
M569.995728,550.006287 
	C569.995728,550.006287 570.045471,550.061523 570.022705,550.030762 
	C570.000000,550.000000 569.995728,550.006287 569.995728,550.006287 
z" data-index="99"></path>
<path fill="#137AA2" opacity="1.000000" stroke="none" d="
M570.003113,549.997925 
	C570.006226,549.995911 569.958496,549.938049 569.977112,549.972168 
	C569.995728,550.006287 570.000000,550.000000 570.003113,549.997925 
z" data-index="100"></path>
<path fill="#137AA2" opacity="1.000000" stroke="none" d="
M640.023682,513.028992 
	C640.046082,513.056702 640.007202,512.974792 640.031738,513.010498 
	C640.056213,513.046143 640.001343,513.001282 640.023682,513.028992 
z" data-index="101"></path>

<path fill="#137AA2" opacity="1.000000" stroke="none" d="
M542.457031,462.939209 
	C538.662048,471.166779 534.281677,479.371796 530.467285,487.831970 
	C527.284363,494.891541 521.543701,499.521576 516.093262,504.467773 
	C513.584229,506.744690 511.572540,506.116699 508.415741,504.052765 
	C492.551422,493.680603 488.643005,476.140228 481.233978,460.295349 
	C483.617157,463.632660 485.950623,467.383331 488.398529,471.057709 
	C490.060272,473.551971 491.882629,475.939270 493.748932,478.705200 
	C493.864716,479.036011 494.044373,479.060913 494.044373,479.060913 
	C496.829407,478.851776 498.513306,479.841583 499.823914,482.602081 
	C500.564392,484.161713 503.267639,485.902985 504.870819,485.715546 
	C508.601440,485.279358 511.041229,486.167908 512.271362,489.729736 
	C518.270569,487.023834 524.008972,484.532867 529.635071,481.809784 
	C530.669556,481.309082 531.397034,479.949860 532.012085,478.845398 
	C534.714905,473.991333 537.284119,469.062500 540.019226,464.227203 
	C540.360107,463.624512 541.400513,463.417480 542.457031,462.939209 
z" data-index="103" style="opacity: 1;"></path>
<path fill="#129CCA" opacity="1.000000" stroke="none" d="
M515.936890,467.893799 
	C517.558167,464.488434 519.179382,461.083069 520.958313,457.346191 
	C523.621155,455.193817 526.126282,453.372955 527.949158,452.048035 
	C529.733521,454.839508 531.732910,457.333344 533.035889,460.149414 
	C535.165771,464.752533 529.857361,461.680756 528.821533,463.732239 
	C527.443420,464.316925 526.194641,464.487366 525.511780,465.200012 
	C522.581787,468.257446 519.697449,471.257324 515.028931,470.678741 
	C515.369934,469.535767 515.653442,468.714783 515.936890,467.893799 
z" data-index="104" style="opacity: 1;"></path>
<path fill="#1194C2" opacity="1.000000" stroke="none" d="
M514.971497,471.000732 
	C519.697449,471.257324 522.581787,468.257446 525.511780,465.200012 
	C526.194641,464.487366 527.443420,464.316925 528.727905,463.954346 
	C530.344055,464.602844 531.664062,465.194000 532.930359,465.761108 
	C531.126160,476.317780 522.605896,476.755157 511.303833,477.179169 
	C512.257141,475.494110 513.516479,473.985687 514.848633,471.936005 
	C514.921509,471.394775 514.971497,471.000732 514.971497,471.000732 
z" data-index="105"></path>
<path fill="#137AA2" opacity="1.000000" stroke="none" d="
M475.689880,448.865295 
	C474.973297,446.022064 474.503265,443.413269 474.022095,440.399780 
	C475.069275,440.716980 476.814880,441.251709 477.071045,442.192169 
	C478.429871,447.180084 479.414581,452.269867 480.406006,457.643524 
	C478.834167,455.008392 477.385284,452.054077 475.689880,448.865295 
z" data-index="106"></path>
<path fill="#1194C2" opacity="1.000000" stroke="none" d="
M502.057312,473.329926 
	C505.426697,471.774658 507.447235,473.401062 508.915100,476.664246 
	C505.478638,478.449219 503.317627,477.053009 502.057312,473.329926 
z" data-index="107"></path>
<path fill="#137AA2" opacity="1.000000" stroke="none" d="
M552.504028,437.066833 
	C551.762085,440.082611 550.759338,443.296692 549.542725,446.755737 
	C547.108521,442.800079 550.870544,440.390259 552.504028,437.066833 
z" data-index="108"></path>
<path fill="#137AA2" opacity="1.000000" stroke="none" d="
M546.513184,454.013245 
	C545.794495,456.097351 544.781372,458.323334 543.554077,460.775391 
	C544.299500,458.719391 545.259155,456.437256 546.513184,454.013245 
z" data-index="109"></path>
<path fill="#129CCA" opacity="1.000000" stroke="none" d="
M527.939331,448.705811 
	C528.034180,447.497009 528.380066,446.337341 528.725952,445.177673 
	C529.279968,445.480347 529.833984,445.782990 530.388000,446.085632 
	C529.655457,446.975433 528.922913,447.865204 527.939331,448.705811 
z" data-index="110"></path>
<path fill="#137AA2" opacity="1.000000" stroke="none" d="
M559.022827,401.452942 
	C559.293091,402.762421 559.594116,404.470520 559.866821,406.566895 
	C559.624329,406.490936 559.410095,406.026703 559.135010,405.314575 
	C559.067261,403.994965 559.060425,402.923218 559.022827,401.452942 
z" data-index="111"></path>
<path fill="#129CCA" opacity="1.000000" stroke="none" d="
M533.084778,450.698242 
	C533.481384,450.762360 533.763977,450.951355 534.046570,451.140320 
	C533.954895,451.242676 533.797302,451.443451 533.781372,451.432770 
	C533.500916,451.244934 533.237671,451.031219 533.084778,450.698242 
z" data-index="112"></path>
<path fill="#137AA2" opacity="1.000000" stroke="none" d="
M559.744995,409.237976 
	C559.922668,409.743530 559.967346,410.487030 560.007751,411.603088 
	C559.872986,411.142395 559.742493,410.309143 559.744995,409.237976 
z" data-index="113"></path>
<path fill="#137AA2" opacity="1.000000" stroke="none" d="
M553.744934,434.192993 
	C553.711731,434.487885 553.524170,435.016052 553.155029,435.761719 
	C553.179077,435.461548 553.384827,434.943878 553.744934,434.192993 
z" data-index="114"></path>
<path fill="#3EB1D8" opacity="1.000000" stroke="none" d="
M515.028931,470.678741 
	C514.971497,471.000732 514.921509,471.394775 514.900635,471.590332 
	C509.659943,472.634644 507.043274,470.187653 505.308105,465.334167 
	C502.350159,457.060364 498.704590,449.034485 495.437317,440.868652 
	C490.614960,428.816162 487.899750,416.448608 489.530518,403.332245 
	C489.913879,400.248718 489.285431,397.039368 489.321167,393.450623 
	C489.519897,393.013367 489.931488,393.020233 489.931488,393.020233 
	C490.004883,394.062164 490.078308,395.104095 490.151733,396.146027 
	C490.383423,396.143311 490.615112,396.140594 490.846802,396.137909 
	C490.921509,395.058533 490.996216,393.979187 491.235291,392.485962 
	C491.399658,392.072052 491.732666,391.866730 491.732666,391.866730 
	C491.635834,404.330475 492.201050,416.756195 495.394958,428.864319 
	C499.136078,443.046936 504.844940,456.437012 512.671753,469.008667 
	C513.465576,468.683105 514.331238,468.328094 515.566895,467.933411 
	C515.653442,468.714783 515.369934,469.535767 515.028931,470.678741 
z" data-index="115"></path>
<path fill="#148FBA" opacity="1.000000" stroke="none" d="
M468.515228,420.916504 
	C468.136719,420.447052 468.118164,420.006134 468.091064,419.232117 
	C467.726959,411.218597 467.371368,403.538116 467.191803,395.178345 
	C467.573181,394.004089 467.778534,393.509186 467.983856,393.014252 
	C467.983856,393.014252 467.998169,393.001312 468.006317,392.993530 
	C468.770874,393.836273 470.073486,394.615021 470.196106,395.548767 
	C471.070923,402.209015 471.787231,408.893860 472.357330,415.587616 
	C472.498047,417.240143 471.914429,418.954346 471.359680,420.815430 
	C470.328827,420.975464 469.601990,420.960236 468.515228,420.916504 
z" data-index="116"></path>
<path fill="#14A1CE" opacity="1.000000" stroke="none" d="
M491.808105,337.867981 
	C491.723572,338.448425 491.473358,338.869873 491.223145,339.291321 
	C490.818420,338.868286 490.413666,338.445251 490.008881,338.022247 
	C490.553375,337.917816 491.097900,337.813385 491.808105,337.867981 
z" data-index="117"></path>
<path fill="#148FBA" opacity="1.000000" stroke="none" d="
M470.999176,380.998779 
	C471.271271,380.642181 471.544189,380.286804 471.817078,379.931458 
	C471.670380,380.246124 471.523651,380.560822 471.189697,380.938568 
	C471.002441,381.001648 471.000000,381.000000 470.999176,380.998779 
z" data-index="118"></path>
<path fill="#148FBA" opacity="1.000000" stroke="none" d="
M491.824402,391.522095 
	C491.732666,391.866730 491.399658,392.072052 491.221191,392.154297 
	C491.171112,391.364960 491.299469,390.493408 491.580688,389.332367 
	C491.794434,389.754425 491.855286,390.465942 491.824402,391.522095 
z" data-index="119"></path>
<path fill="#14A1CE" opacity="1.000000" stroke="none" d="
M480.056000,344.867493 
	C479.982330,344.969330 480.025452,344.511932 480.053101,344.284851 
	C480.218323,344.288086 480.234619,344.524048 480.056000,344.867493 
z" data-index="120"></path>
<path fill="#148FBA" opacity="1.000000" stroke="none" d="
M489.833893,392.965454 
	C489.931488,393.020233 489.519897,393.013367 489.315613,393.010559 
	C489.305786,392.870758 489.514099,392.838409 489.833893,392.965454 
z" data-index="121"></path>
<path fill="#156788" opacity="1.000000" stroke="none" d="
M524.914551,628.067749 
	C525.276428,630.065125 525.911194,632.057068 525.950500,634.060791 
	C526.081970,640.757141 526.000305,647.457642 524.891785,654.149475 
	C524.891785,646.377747 524.891785,638.605957 524.893555,630.057861 
	C524.901794,628.876892 524.908142,628.472351 524.914551,628.067749 
z" data-index="122"></path>
<path fill="#156788" opacity="1.000000" stroke="none" d="
M497.910309,684.630859 
	C497.622772,684.798462 497.351685,684.786865 497.080566,684.775269 
	C497.240173,684.396790 497.399811,684.018311 497.559448,683.639832 
	C497.681885,683.910461 497.804291,684.181030 497.910309,684.630859 
z" data-index="123"></path>
<path fill="#1188B4" opacity="1.000000" stroke="none" d="
M524.711243,628.137634 
	C524.908142,628.472351 524.901794,628.876892 524.867188,629.582642 
	C524.728638,629.325012 524.618286,628.766296 524.711243,628.137634 
z" data-index="124"></path>
<path fill="#1188B4" opacity="1.000000" stroke="none" d="
M521.984131,620.428955 
	C522.023315,620.430847 521.945007,620.427124 521.984131,620.428955 
z" data-index="125"></path>
<path fill="#156788" opacity="1.000000" stroke="none" d="
M505.068970,687.546997 
	C505.035126,687.586670 504.920593,687.440979 504.920593,687.440979 
	C504.920593,687.440979 505.102844,687.507324 505.068970,687.546997 
z" data-index="126"></path>
<path fill="#156788" opacity="1.000000" stroke="none" d="
M499.501984,689.491333 
	C499.509827,689.511353 499.494141,689.471313 499.501984,689.491333 
z" data-index="127"></path>
<path fill="#2EAED9" opacity="1.000000" stroke="none" d="
M622.296875,431.769958 
	C624.020264,430.045441 625.831177,427.533447 628.240417,426.646362 
	C637.524780,423.227539 647.000366,420.328247 656.800659,417.198761 
	C653.983765,418.771942 650.857605,420.593353 647.541077,421.949554 
	C639.293396,425.322327 630.958923,428.483002 622.296875,431.769958 
z" data-index="128"></path>
<path fill="#148FBA" opacity="1.000000" stroke="none" d="
M682.387573,450.927795 
	C682.061218,449.362030 682.029236,447.610260 681.993408,445.422821 
	C683.173462,441.147064 684.219788,437.255829 685.617554,433.495209 
	C686.092102,432.218506 687.453247,431.271332 688.742310,430.117493 
	C686.944214,436.954865 684.813110,443.848328 682.387573,450.927795 
z" data-index="129"></path>
<path fill="#2EAED9" opacity="1.000000" stroke="none" d="
M665.291626,416.256348 
	C668.408447,415.429718 671.868713,414.768768 675.766235,414.146118 
	C672.680725,414.930298 669.157837,415.676147 665.291626,416.256348 
z" data-index="130"></path>
<path fill="#2EAED9" opacity="1.000000" stroke="none" d="
M659.228271,417.224487 
	C660.101807,416.742188 661.252258,416.408813 662.775513,416.096375 
	C661.933960,416.536011 660.719604,416.954742 659.228271,417.224487 
z" data-index="131"></path>
<path fill="#2EAED9" opacity="1.000000" stroke="none" d="
M346.477173,415.954773 
	C344.952362,415.949158 343.886963,415.940247 342.194977,415.768494 
	C341.047913,415.400726 340.527435,415.195801 340.006927,414.990875 
	C338.848633,415.045166 337.690369,415.099487 336.099365,415.246857 
	C334.642853,414.614807 333.619080,413.889709 332.404785,412.910797 
	C334.946167,412.177460 337.819550,410.898865 340.385925,411.353485 
	C353.066223,413.599854 365.812958,415.739899 378.255188,418.992584 
	C393.416351,422.955994 407.191010,430.341888 420.338409,438.804169 
	C421.468567,439.531647 422.094910,441.041809 423.012085,442.530945 
	C419.027069,440.657990 414.888184,438.601257 410.960297,436.199493 
	C394.239594,425.975403 376.268768,419.169617 356.868103,416.308014 
	C353.610901,415.827606 350.249695,416.052521 346.477173,415.954773 
z" data-index="132"></path>
<path fill="#1188B4" opacity="1.000000" stroke="none" d="
M336.984039,436.399658 
	C338.308411,438.304535 339.870361,440.501740 340.953247,442.913971 
	C342.209930,445.713348 343.046204,448.701447 343.914368,451.870300 
	C341.512482,447.017639 339.261139,441.902313 336.984039,436.399658 
z" data-index="133"></path>
<path fill="#137AA2" opacity="1.000000" stroke="none" d="
M495.521484,590.494385 
	C495.531311,590.519287 495.511627,590.469543 495.521484,590.494385 
z" data-index="134"></path>
<path fill="#137AA2" opacity="1.000000" stroke="none" d="
M525.018677,693.989746 
	C525.035706,693.974365 525.035095,694.128418 525.003418,694.084290 
	C524.971802,694.040161 525.001587,694.005066 525.018677,693.989746 
z" data-index="135"></path>
<path fill="#2EAED9" opacity="1.000000" stroke="none" d="
M430.761536,447.838562 
	C428.666473,446.660553 426.415894,445.178284 424.048004,443.370056 
	C426.155792,444.540863 428.380920,446.037598 430.761536,447.838562 
z" data-index="136"></path>
<path fill="#1194C2" opacity="1.000000" stroke="none" d="
M541.478638,521.521484 
	C541.461792,521.486511 541.495483,521.556519 541.478638,521.521484 
z" data-index="137"></path>
<path fill="#1188B4" opacity="1.000000" stroke="none" d="
M675.274048,468.821899 
	C674.241699,469.127655 673.386658,469.167419 672.285278,469.133148 
	C673.829834,466.466431 675.620667,463.873688 677.726501,461.160339 
	C677.790527,462.166229 677.539551,463.292694 677.182495,464.753174 
	C676.534851,466.243439 675.993103,467.399628 675.274048,468.821899 
z" data-index="138"></path>
<path fill="#1188B4" opacity="1.000000" stroke="none" d="
M678.360413,459.945862 
	C678.543762,459.460724 678.987976,458.843903 679.701294,458.105286 
	C679.520691,458.593689 679.071045,459.203918 678.360413,459.945862 
z" data-index="139"></path>
<path fill="#129CCA" opacity="1.000000" stroke="none" d="
M467.752625,393.019226 
	C467.778534,393.509186 467.573181,394.004089 467.208008,394.713501 
	C467.044891,394.507507 467.041595,394.087097 467.048645,393.351318 
	C467.058960,393.035980 467.521393,393.024231 467.752625,393.019226 
z" data-index="140"></path>
<path fill="#129CCA" opacity="1.000000" stroke="none" d="
M377.146301,483.128937 
	C377.741608,483.634399 378.389404,484.468628 379.100708,485.629181 
	C378.509125,485.122925 377.853973,484.290314 377.146301,483.128937 
z" data-index="141"></path>
<path fill="#129CCA" opacity="1.000000" stroke="none" d="
M340.085876,415.214233 
	C340.527435,415.195801 341.047913,415.400726 341.795837,415.771545 
	C341.403778,415.770813 340.784302,415.604187 340.085876,415.214233 
z" data-index="142"></path>
<path fill="#3EB1D8" opacity="1.000000" stroke="none" d="
M629.777100,496.059570 
	C629.793640,496.204315 629.560852,496.441833 629.143311,496.848267 
	C629.151611,496.732147 629.341309,496.443848 629.777100,496.059570 
z" data-index="143"></path>
<path fill="#148FBA" opacity="1.000000" stroke="none" d="
M494.020782,479.035187 
	C494.044373,479.060913 493.864716,479.036011 493.905518,478.998840 
	C493.946289,478.961700 493.997192,479.009460 494.020782,479.035187 
z" data-index="144"></path>
</svg>