<svg version="1.1" id="Layer_1" xmlns="http://www.w3.org/2000/svg" xmlns:xlink="http://www.w3.org/1999/xlink" x="0px" y="0px" width="100%" viewBox="0 0 1024 1024" enable-background="new 0 0 1024 1024" xml:space="preserve">

<path fill="#3C1C26" opacity="1.000000" stroke="none" d="
M535.725403,319.807648 
	C536.037415,320.379730 536.349487,320.951843 536.918701,322.045288 
	C537.404175,323.035034 537.632507,323.503448 537.860779,323.971863 
	C537.860779,323.971863 537.921265,324.037872 538.038574,324.320496 
	C538.403748,325.064789 538.651550,325.526459 538.899414,325.988129 
	C539.053467,326.089020 539.207458,326.189911 539.601746,326.431396 
	C539.842102,326.571960 539.818176,326.568329 539.818176,326.568329 
	C540.113953,327.526031 540.409729,328.483734 540.951172,330.124268 
	C549.240173,348.790863 555.374268,367.343384 557.924988,386.963348 
	C557.960022,387.721710 557.995056,388.480072 558.023071,389.900391 
	C558.027893,390.750244 558.039856,390.938171 558.051880,391.126129 
	C558.075562,397.471558 558.099243,403.816956 557.920776,410.940063 
	C554.477112,423.539001 551.290894,435.375977 547.925720,447.161896 
	C547.494446,448.672333 546.132141,449.916962 545.201111,451.284698 
	C544.567505,451.314392 543.933899,451.344086 543.300232,451.373779 
	C545.874268,445.212097 542.144775,444.900635 538.462341,443.378906 
	C533.334473,441.259827 530.510559,445.939056 526.492432,445.757141 
	C535.840332,419.940247 537.834961,393.987305 530.475525,367.914703 
	C526.794128,354.872467 521.135132,342.384796 516.250549,329.692474 
	C515.831116,328.602661 514.242310,326.971008 513.659546,327.144623 
	C512.484253,327.494659 511.373169,328.765594 510.694672,329.925201 
	C509.439789,332.070038 508.523926,334.412262 507.451691,336.665039 
	C494.820221,363.203217 489.649323,391.122986 494.387817,420.154480 
	C496.427063,432.648254 501.490845,444.648346 504.857849,456.753876 
	C502.390533,454.209320 500.217529,451.807800 498.115143,449.346008 
	C497.278900,448.366882 496.512115,446.298584 495.861847,446.357635 
	C491.631042,446.741882 487.290649,447.137939 483.321045,448.503540 
	C481.972595,448.967468 481.592712,452.246948 480.770264,454.239838 
	C478.032837,447.893127 475.111542,441.618317 472.595398,435.185059 
	C466.964691,420.788635 467.597748,405.389160 467.568970,390.522430 
	C467.536011,373.509460 471.462708,356.672607 479.301636,341.149475 
	C484.055817,331.734924 488.307922,322.011444 493.776367,313.030060 
	C498.315063,305.575745 504.246674,298.959656 509.673828,292.060822 
	C511.933167,289.188751 514.598938,289.452057 516.807312,292.121857 
	C519.437073,295.301147 521.802368,298.699066 524.434204,302.487549 
	C525.038269,303.650696 525.490417,304.328552 525.942566,305.006378 
	C525.942566,305.006378 525.982117,305.024933 526.120972,305.308350 
	C526.832642,306.394135 527.405518,307.196533 527.978333,307.998932 
	C527.978333,307.998932 528.012573,307.981049 528.149170,308.171936 
	C528.481750,308.586517 528.691650,308.796265 528.915588,308.992004 
	C528.915588,308.992004 528.975891,309.040039 529.118103,309.208160 
	C529.424683,309.554260 529.605103,309.714081 529.801636,309.855743 
	C529.830383,310.065369 529.859192,310.275024 530.042358,311.061951 
	C530.742126,312.410278 531.287537,313.181305 531.832947,313.952362 
	C532.089172,314.213013 532.345459,314.473663 532.880249,315.221924 
	C533.739197,316.806152 534.319458,317.902802 534.899780,318.999420 
	C534.899780,318.999420 534.968201,319.048126 535.102417,319.208038 
	C535.383545,319.532349 535.546448,319.678894 535.725403,319.807648 
z" data-index="1" style="opacity: 1;"></path>
<path fill="#3B1B26" opacity="1.000000" stroke="none" d="
M355.062195,411.157043 
	C365.837494,413.721375 376.939087,415.369781 387.311432,419.065155 
	C402.795898,424.581726 417.390259,432.178772 429.751160,444.084656 
	C430.182678,444.712891 430.423157,444.917877 430.694885,445.086578 
	C430.694885,445.086578 430.807434,445.233124 431.019562,445.564056 
	C432.866516,447.263580 434.501343,448.632172 436.136169,450.000793 
	C438.599182,452.511719 441.062195,455.022644 443.913208,457.902161 
	C444.620789,458.509094 444.940369,458.747406 445.259949,458.985718 
	C445.424530,459.108368 445.589142,459.231049 446.019867,459.526611 
	C446.285980,459.699524 446.318634,459.729706 446.318634,459.729706 
	C446.472565,459.887970 446.626495,460.046265 447.048828,460.448181 
	C447.317261,460.691803 447.418274,460.787231 447.418274,460.787231 
	C447.418274,460.787231 447.748199,461.108612 448.001892,461.342133 
	C448.255554,461.575653 448.581055,461.911102 448.581055,461.911102 
	C448.581055,461.911102 448.702789,462.318939 448.882568,462.777374 
	C450.346649,464.827576 451.630951,466.419373 452.915253,468.011139 
	C452.915253,468.011139 452.965729,468.016846 453.131836,468.201233 
	C453.501801,468.603516 453.718262,468.808044 453.947357,468.999268 
	C453.947357,468.999268 453.981049,469.035309 454.126343,469.301514 
	C454.970703,470.388092 455.669739,471.208435 456.368744,472.028809 
	C456.368744,472.028809 456.649017,472.252106 456.901428,472.549622 
	C457.401489,473.222229 457.649109,473.597351 457.896729,473.972473 
	C457.896759,473.972473 457.953979,474.038116 458.113586,474.373840 
	C459.803741,476.809967 461.334290,478.910339 462.864807,481.010742 
	C462.864807,481.010742 462.931244,481.075989 463.085388,481.425537 
	C465.781342,485.847565 468.323181,489.920044 470.865021,493.992554 
	C470.865021,493.992554 470.899994,494.024780 470.702026,494.240082 
	C468.900513,494.488098 467.126251,494.980286 465.727753,494.460907 
	C462.516663,493.268280 459.613800,490.791473 456.357971,490.276428 
	C451.025970,489.433014 453.135101,495.986908 450.094788,497.774475 
	C449.956390,497.855835 449.854309,497.998993 449.533508,497.854431 
	C446.100861,493.150635 443.117706,488.498260 439.597260,484.296021 
	C422.334930,463.690430 402.360901,446.697174 376.423370,437.878418 
	C374.808838,437.329468 373.064972,437.160706 369.681458,436.466156 
	C376.085510,464.644958 390.297852,486.416901 410.106812,505.347443 
	C410.922363,507.890747 412.108795,511.049377 408.076599,510.236938 
	C403.851776,509.385681 399.864197,507.241516 395.856903,505.472198 
	C393.656677,504.500763 391.753235,502.741119 389.497467,502.036774 
	C385.398712,500.756927 381.136841,499.999390 376.943054,499.023895 
	C376.798309,498.893188 376.653534,498.762512 376.195587,498.157776 
	C371.024139,490.786804 366.165894,483.889923 361.307617,476.993042 
	C361.307617,476.993042 361.199463,476.866791 361.057465,476.471802 
	C350.912384,458.264191 344.181396,439.280151 340.566498,419.183838 
	C339.403870,412.720398 340.104034,412.031464 346.735016,412.012970 
	C349.511505,412.005219 352.286499,411.458618 355.062195,411.157043 
z" data-index="2" style="opacity: 1;"></path>
<path fill="#2D1018" opacity="1.000000" stroke="none" d="
M495.997620,699.981812 
	C497.399353,691.967468 499.235138,683.999878 500.102905,675.928101 
	C501.466095,663.248596 502.814362,650.507141 502.979401,637.776550 
	C503.135864,625.706238 502.665649,613.475769 500.815277,601.573120 
	C498.863800,589.020386 491.437958,579.025757 481.459076,571.119446 
	C478.594574,568.849915 475.607269,566.735352 472.565369,564.116455 
	C473.962708,563.139771 475.435852,562.280884 476.985413,562.108337 
	C483.349548,561.399658 489.736938,560.899658 496.115753,560.322876 
	C497.592407,561.819885 498.887756,563.590088 500.602600,564.728149 
	C501.997986,565.654114 503.895935,565.822693 506.072571,566.144531 
	C507.235565,565.280579 508.292267,564.701355 508.498688,563.902344 
	C511.161774,553.595642 518.354492,544.641479 517.657593,533.338562 
	C518.360168,540.879089 519.049805,548.420776 519.771606,555.959473 
	C520.053955,558.908203 520.040283,561.953308 520.830017,564.766907 
	C521.686340,567.817566 523.997925,568.207336 525.971191,565.704712 
	C528.005737,563.124512 529.582520,560.183228 531.825439,557.111938 
	C535.580811,556.199829 539.229736,554.211304 541.809143,557.837646 
	C544.719360,561.929016 548.550232,562.647034 553.044800,562.019470 
	C552.636475,562.568848 552.228088,563.118286 551.371704,563.984985 
	C550.058472,564.761658 549.193237,565.221008 548.328003,565.680359 
	C547.895813,566.093628 547.463684,566.506897 546.622192,567.302307 
	C545.921021,567.904358 545.629150,568.124268 545.337280,568.344177 
	C539.993835,575.290222 532.878479,581.533020 529.769653,589.366028 
	C526.140991,598.508911 525.153870,608.991516 524.585022,618.981995 
	C523.909180,630.851318 524.103333,642.901123 525.376038,654.715881 
	C526.825073,668.167725 529.570557,681.511963 532.366760,694.773438 
	C533.796936,701.555908 532.258362,704.621094 525.269104,704.764343 
	C518.454529,704.904053 511.596222,705.197327 504.834717,704.577026 
	C501.921967,704.309753 499.204865,701.910400 496.188538,700.225220 
	C495.978210,699.970825 495.997620,699.981812 495.997620,699.981812 
z" data-index="3" style="opacity: 1;"></path>
<path fill="#34151F" opacity="1.000000" stroke="none" d="
M553.337646,562.003601 
	C548.550232,562.647034 544.719360,561.929016 541.809143,557.837646 
	C539.229736,554.211304 535.580811,556.199829 531.979492,556.853149 
	C538.736511,538.601013 539.890747,518.254944 551.605957,501.051880 
	C553.129089,500.086517 554.321716,499.655853 554.994141,498.811157 
	C557.039734,496.241608 559.102661,493.755249 562.781189,495.624664 
	C566.716919,497.624786 568.458008,500.687805 567.516357,505.360779 
	C567.029602,507.776062 567.676453,510.419769 567.748047,513.314941 
	C566.141663,517.521667 564.493408,521.335815 563.088013,525.237488 
	C561.955383,528.381958 563.324341,530.562256 566.592712,529.808167 
	C571.826477,528.600647 576.884766,526.632263 582.007935,524.994446 
	C581.998718,525.003357 581.979370,525.021484 582.306885,524.905396 
	C585.782288,523.460571 589.187500,522.535950 592.029175,520.726318 
	C600.045715,515.621582 608.086914,510.487640 615.620239,504.715118 
	C620.952454,500.629242 625.914917,495.857605 630.247864,490.721741 
	C635.856201,484.074036 640.673706,476.759155 646.092896,469.967010 
	C648.320496,470.888184 650.354858,472.281158 652.238159,472.100372 
	C655.371155,471.799652 657.324036,472.241241 658.390442,475.486298 
	C658.716125,476.477722 660.273499,477.730713 661.195068,477.675110 
	C662.141785,477.617981 663.311462,476.260712 663.833801,475.201355 
	C664.928406,472.981384 665.058228,470.001617 666.644409,468.355194 
	C675.342651,459.326477 676.279114,447.024567 680.523743,436.167175 
	C682.738647,430.501587 683.565796,424.268829 684.779480,418.243866 
	C685.828064,413.039185 684.900391,411.960632 679.481689,412.096710 
	C676.172974,412.179810 672.851562,412.650696 669.581970,413.214722 
	C661.903015,414.539337 654.251892,416.024536 646.589478,417.444763 
	C649.918518,416.328888 653.247498,415.213043 657.235046,413.987091 
	C658.551208,413.632355 659.208923,413.387726 659.866577,413.143097 
	C662.700073,412.522919 665.533569,411.902740 668.988586,411.272095 
	C670.395386,411.220306 671.180725,411.178955 671.966003,411.137634 
	C673.171997,410.878662 674.377991,410.619690 676.263489,410.404083 
	C678.881104,410.371521 680.819214,410.295624 682.757324,410.219727 
	C687.029297,409.989929 687.769836,412.411713 687.261047,416.000458 
	C683.854919,440.022461 676.164856,462.557220 663.149963,483.055420 
	C659.091187,489.447906 653.512390,494.854309 648.944519,500.948303 
	C635.743347,518.559937 617.873779,530.294250 599.366150,541.448425 
	C584.901672,550.165894 569.312134,556.117737 553.337646,562.003601 
M587.510437,523.475769 
	C587.510437,523.475769 587.468201,523.486328 587.510437,523.475769 
z" data-index="4" style="opacity: 1;"></path>
<path fill="#3A1924" opacity="1.000000" stroke="none" d="
M646.144897,417.389954 
	C654.251892,416.024536 661.903015,414.539337 669.581970,413.214722 
	C672.851562,412.650696 676.172974,412.179810 679.481689,412.096710 
	C684.900391,411.960632 685.828064,413.039185 684.779480,418.243866 
	C683.565796,424.268829 682.738647,430.501587 680.523743,436.167175 
	C676.279114,447.024567 675.342651,459.326477 666.644409,468.355194 
	C665.058228,470.001617 664.928406,472.981384 663.833801,475.201355 
	C663.311462,476.260712 662.141785,477.617981 661.195068,477.675110 
	C660.273499,477.730713 658.716125,476.477722 658.390442,475.486298 
	C657.324036,472.241241 655.371155,471.799652 652.238159,472.100372 
	C650.354858,472.281158 648.320496,470.888184 646.169189,469.626343 
	C649.289124,460.027252 652.776550,451.065125 655.809082,441.951630 
	C657.028931,438.285431 655.087952,436.268677 651.270264,437.763550 
	C644.318420,440.485718 637.269043,443.108185 630.673096,446.560699 
	C614.242004,455.161194 600.804749,467.582428 588.032715,481.256744 
	C587.206787,482.068604 586.649353,482.705444 585.960449,483.638977 
	C584.197205,486.288330 582.565247,488.640930 580.640015,491.137421 
	C579.554199,492.744843 578.761780,494.208374 577.799927,495.920593 
	C577.124268,496.789459 576.618103,497.409637 575.868103,498.236328 
	C575.108337,499.360962 574.592529,500.279114 573.941895,501.513794 
	C571.808472,505.540314 569.809814,509.250305 567.811157,512.960266 
	C567.676453,510.419769 567.029602,507.776062 567.516357,505.360779 
	C568.458008,500.687805 566.716919,497.624786 562.781189,495.624664 
	C559.102661,493.755249 557.039734,496.241608 554.994141,498.811157 
	C554.321716,499.655853 553.129089,500.086517 551.820557,500.827942 
	C552.003784,499.790375 552.540894,498.631409 553.463196,496.933472 
	C555.217346,493.889679 556.586243,491.384796 557.955200,488.879944 
	C562.739929,481.935150 567.486877,474.963989 572.317383,468.051208 
	C581.902710,454.333923 594.806824,443.968750 608.695312,435.322754 
	C620.275208,428.113861 633.309937,423.242004 646.144897,417.389954 
z" data-index="5" style="opacity: 1;"></path>
<path fill="#34151F" opacity="1.000000" stroke="none" d="
M496.159546,559.947266 
	C489.736938,560.899658 483.349548,561.399658 476.985413,562.108337 
	C475.435852,562.280884 473.962708,563.139771 472.275696,563.892334 
	C469.091156,562.734863 466.093170,561.350586 463.077881,560.005066 
	C455.504547,556.625488 447.793243,553.525452 440.373566,549.837769 
	C426.681244,543.032471 412.611694,536.556030 401.368958,525.988403 
	C392.711853,517.851196 385.208374,508.486542 377.067505,499.345795 
	C381.136841,499.999390 385.398712,500.756927 389.497467,502.036774 
	C391.753235,502.741119 393.656677,504.500763 395.856903,505.472198 
	C399.864197,507.241516 403.851776,509.385681 408.076599,510.236938 
	C412.108795,511.049377 410.922363,507.890747 410.377655,505.289612 
	C411.805634,505.566711 413.182587,506.055420 414.331970,506.866516 
	C419.931244,510.817993 425.272034,515.176514 431.091888,518.761719 
	C435.778076,521.648621 441.017395,523.637634 446.001129,526.011108 
	C445.990967,525.997192 445.967438,525.971313 446.278748,526.140808 
	C450.081360,527.265686 453.542480,528.361572 457.076019,529.120361 
	C459.000000,529.533630 461.046906,529.374695 463.038361,529.473755 
	C462.875031,527.456055 463.268219,525.173157 462.454529,523.465332 
	C458.388763,514.931824 454.006378,506.549133 449.735352,498.113403 
	C449.854309,497.998993 449.956390,497.855835 450.094788,497.774475 
	C453.135101,495.986908 451.025970,489.433014 456.357971,490.276428 
	C459.613800,490.791473 462.516663,493.268280 465.727753,494.460907 
	C467.126251,494.980286 468.900513,494.488098 470.703613,494.263794 
	C473.327301,498.309082 476.426270,502.302765 478.056305,506.825836 
	C484.359406,524.316223 490.194122,541.975342 496.159546,559.947266 
M472.808838,503.229492 
	C473.252686,504.056366 473.696564,504.883240 474.140442,505.710144 
	C474.505646,505.403534 474.870819,505.096954 475.236023,504.790375 
	C474.475067,504.146393 473.714081,503.502441 472.808838,503.229492 
M471.512695,497.522308 
	C471.512695,497.522308 471.507355,497.487640 471.512695,497.522308 
z" data-index="6" style="opacity: 1;"></path>
<path fill="#34151F" opacity="1.000000" stroke="none" d="
M517.682739,532.945984 
	C518.354492,544.641479 511.161774,553.595642 508.498688,563.902344 
	C508.292267,564.701355 507.235565,565.280579 506.323486,566.005737 
	C506.662170,563.613892 507.251465,561.178406 507.875488,558.284119 
	C507.910156,557.825378 507.711914,557.505737 507.711914,557.505737 
	C507.894928,556.552551 508.077942,555.599304 508.488098,554.181458 
	C508.877686,553.198730 509.040100,552.680664 509.202515,552.162598 
	C509.148651,551.363525 509.094788,550.564514 509.177185,549.016663 
	C509.505920,546.773926 509.698395,545.279907 509.890869,543.785950 
	C509.743530,541.294250 509.596161,538.802612 509.452698,535.640747 
	C509.337677,533.664612 509.218781,532.358643 509.099884,531.052673 
	C509.075745,530.584717 509.051575,530.116699 509.033051,528.872009 
	C508.716248,525.409790 508.393799,522.724243 508.071350,520.038757 
	C504.848602,506.565369 500.756500,493.467438 493.877930,481.270081 
	C489.081207,472.764404 485.184387,463.751251 480.827942,454.602295 
	C481.592712,452.246948 481.972595,448.967468 483.321045,448.503540 
	C487.290649,447.137939 491.631042,446.741882 495.861847,446.357635 
	C496.512115,446.298584 497.278900,448.366882 498.115143,449.346008 
	C500.217529,451.807800 502.390533,454.209320 504.831451,456.788513 
	C505.127716,456.942017 505.043610,456.927429 505.074280,457.205505 
	C505.815186,458.259949 506.525421,459.036346 507.455383,460.072937 
	C508.020630,460.901550 508.299347,461.526459 508.723663,462.028259 
	C510.229187,463.808655 511.784363,465.547058 513.320740,467.301361 
	C515.084961,465.462708 517.302551,463.881561 518.522400,461.733704 
	C521.390503,456.683441 523.781982,451.362488 526.366333,446.151062 
	C530.510559,445.939056 533.334473,441.259827 538.462341,443.378906 
	C542.144775,444.900635 545.874268,445.212097 543.300232,451.373779 
	C543.933899,451.344086 544.567505,451.314392 545.201111,451.284698 
	C546.132141,449.916962 547.494446,448.672333 547.925720,447.161896 
	C551.290894,435.375977 554.477112,423.539001 557.854858,411.358368 
	C560.171448,422.843262 556.299500,433.773956 552.130676,444.384033 
	C548.880310,452.656403 544.578674,460.615082 539.935730,468.219543 
	C531.104736,482.683380 524.535461,498.026184 519.861816,514.963989 
	C519.485535,516.179749 519.308289,516.751526 519.131042,517.323364 
	C519.108459,517.696472 519.085815,518.069641 518.926331,518.992432 
	C518.800110,520.660583 518.810669,521.779053 518.821289,522.897522 
	C518.742249,523.423828 518.663147,523.950195 518.338379,525.061523 
	C516.613037,527.338013 514.012634,528.955750 517.741028,530.990051 
	C517.729980,531.511169 517.718933,532.032288 517.682739,532.945984 
z" data-index="7" style="opacity: 1;"></path>
<path fill="#34151F" opacity="1.000000" stroke="none" d="
M354.646118,411.082642 
	C352.286499,411.458618 349.511505,412.005219 346.735016,412.012970 
	C340.104034,412.031464 339.403870,412.720398 340.566498,419.183838 
	C344.181396,439.280151 350.912384,458.264191 361.015564,476.400024 
	C359.982178,475.837677 358.418884,475.189362 357.779419,474.031036 
	C347.510773,455.429535 340.797638,435.601013 337.561737,414.593903 
	C337.091705,411.542633 338.577667,410.060425 341.360168,410.126770 
	C345.654694,410.229156 349.940521,410.695953 354.646118,411.082642 
z" data-index="8"></path>
<path fill="#34151F" opacity="1.000000" stroke="none" d="
M558.025330,386.587769 
	C555.374268,367.343384 549.240173,348.790863 541.090332,330.473846 
	C544.271851,336.563171 548.363708,342.713013 550.657166,349.472992 
	C554.005005,359.340729 556.170349,369.620911 558.573547,379.788177 
	C559.045044,381.782806 558.306274,384.063477 558.025330,386.587769 
z" data-index="9"></path>
<path fill="#34151F" opacity="1.000000" stroke="none" d="
M361.304749,477.366943 
	C366.165894,483.889923 371.024139,490.786804 375.987335,497.952332 
	C375.442291,498.115143 374.437408,498.240814 374.195007,497.869141 
	C369.842438,491.195496 365.582031,484.461731 361.304749,477.366943 
z" data-index="10"></path>
<path fill="#34151F" opacity="1.000000" stroke="none" d="
M470.794128,493.633484 
	C468.323181,489.920044 465.781342,485.847565 463.106506,481.466980 
	C465.556763,485.197418 468.140015,489.235901 470.794128,493.633484 
z" data-index="11"></path>
<path fill="#2D1018" opacity="1.000000" stroke="none" d="
M517.947388,530.723511 
	C514.012634,528.955750 516.613037,527.338013 518.269836,525.454834 
	C518.349243,526.994385 518.251526,528.725708 517.947388,530.723511 
z" data-index="12"></path>

<path fill="#34151F" opacity="1.000000" stroke="none" d="
M462.815765,480.660706 
	C461.334290,478.910339 459.803741,476.809967 458.129944,474.414246 
	C459.580017,476.182800 461.173370,478.246765 462.815765,480.660706 
z" data-index="14"></path>
<path fill="#2D1018" opacity="1.000000" stroke="none" d="
M507.968018,520.385254 
	C508.393799,522.724243 508.716248,525.409790 509.033264,528.520508 
	C508.858490,528.924255 508.689117,528.902771 508.244934,528.534485 
	C507.736633,526.896240 507.503235,525.604797 507.269775,524.313354 
	C507.468079,523.119507 507.666382,521.925659 507.968018,520.385254 
z" data-index="15"></path>
<path fill="#34151F" opacity="1.000000" stroke="none" d="
M436.010406,449.681824 
	C434.501343,448.632172 432.866516,447.263580 431.070343,445.641235 
	C432.567535,446.712616 434.226105,448.037720 436.010406,449.681824 
z" data-index="16"></path>
<path fill="#34151F" opacity="1.000000" stroke="none" d="
M452.852173,467.672058 
	C451.630951,466.419373 450.346649,464.827576 448.952240,462.978455 
	C450.157776,464.258392 451.473419,465.795685 452.852173,467.672058 
z" data-index="17"></path>

<path fill="#2D1018" opacity="1.000000" stroke="none" d="
M509.005249,531.340881 
	C509.218781,532.358643 509.337677,533.664612 509.404358,535.225220 
	C509.204987,534.196289 509.057800,532.912659 509.005249,531.340881 
z" data-index="19"></path>
<path fill="#2D1018" opacity="1.000000" stroke="none" d="
M518.930908,522.633789 
	C518.810669,521.779053 518.800110,520.660583 518.889648,519.270508 
	C519.006653,520.122681 519.023560,521.246338 518.930908,522.633789 
z" data-index="20"></path>
<path fill="#3A1924" opacity="1.000000" stroke="none" d="
M682.356445,410.183868 
	C680.819214,410.295624 678.881104,410.371521 676.632568,410.364990 
	C678.199951,410.237701 680.077759,410.192871 682.356445,410.183868 
z" data-index="21"></path>
<path fill="#34151F" opacity="1.000000" stroke="none" d="
M548.582153,565.647400 
	C549.193237,565.221008 550.058472,564.761658 551.146301,564.242981 
	C550.524719,564.660583 549.680542,565.137512 548.582153,565.647400 
z" data-index="22"></path>
<path fill="#34151F" opacity="1.000000" stroke="none" d="
M456.345825,471.745239 
	C455.669739,471.208435 454.970703,470.388092 454.128418,469.326111 
	C454.764404,469.876862 455.543671,470.669281 456.345825,471.745239 
z" data-index="23"></path>
<path fill="#34151F" opacity="1.000000" stroke="none" d="
M534.873169,318.669800 
	C534.319458,317.902802 533.739197,316.806152 533.078369,315.411407 
	C533.614136,316.188904 534.230347,317.264526 534.873169,318.669800 
z" data-index="24"></path>

<path fill="#34151F" opacity="1.000000" stroke="none" d="
M525.869751,304.719421 
	C525.490417,304.328552 525.038269,303.650696 524.547852,302.823242 
	C524.938721,303.259857 525.367859,303.846161 525.869751,304.719421 
z" data-index="26"></path>

<path fill="#34151F" opacity="1.000000" stroke="none" d="
M531.750977,313.673889 
	C531.287537,313.181305 530.742126,312.410278 530.082031,311.376862 
	C530.534546,311.874786 531.101746,312.635071 531.750977,313.673889 
z" data-index="28"></path>
<path fill="#34151F" opacity="1.000000" stroke="none" d="
M527.877319,307.711029 
	C527.405518,307.196533 526.832642,306.394135 526.123657,305.330017 
	C526.583740,305.853241 527.179993,306.638184 527.877319,307.711029 
z" data-index="29"></path>
<path fill="#2D1018" opacity="1.000000" stroke="none" d="
M509.083038,552.373901 
	C509.040100,552.680664 508.877686,553.198730 508.602936,553.835571 
	C508.648254,553.497925 508.805908,553.041626 509.083038,552.373901 
z" data-index="30"></path>
<path fill="#2D1018" opacity="1.000000" stroke="none" d="
M519.280701,517.167358 
	C519.308289,516.751526 519.485535,516.179749 519.775024,515.334961 
	C519.734924,515.711853 519.582642,516.361633 519.280701,517.167358 
z" data-index="31"></path>
<path fill="#3A1924" opacity="1.000000" stroke="none" d="
M671.614014,411.113617 
	C671.180725,411.178955 670.395386,411.220306 669.380737,411.203430 
	C669.854919,411.126648 670.558472,411.108124 671.614014,411.113617 
z" data-index="32"></path>
<path fill="#34151F" opacity="1.000000" stroke="none" d="
M545.461304,568.281128 
	C545.629150,568.124268 545.921021,567.904358 546.298279,567.612488 
	C546.117554,567.766357 545.851501,567.992188 545.461304,568.281128 
z" data-index="33"></path>

<path fill="#34151F" opacity="1.000000" stroke="none" d="
M457.798279,473.768066 
	C457.649109,473.597351 457.401489,473.222229 457.045227,472.656555 
	C457.191010,472.831848 457.445404,473.197754 457.798279,473.768066 
z" data-index="35"></path>
<path fill="#34151F" opacity="1.000000" stroke="none" d="
M538.787598,325.751221 
	C538.651550,325.526459 538.403748,325.064789 538.058228,324.360748 
	C538.198975,324.583710 538.437439,325.049011 538.787598,325.751221 
z" data-index="36"></path>
<path fill="#34151F" opacity="1.000000" stroke="none" d="
M537.751953,323.735901 
	C537.632507,323.503448 537.404175,323.035034 537.096924,322.318237 
	C537.226440,322.546539 537.434814,323.023254 537.751953,323.735901 
z" data-index="37"></path>
<path fill="#34151F" opacity="1.000000" stroke="none" d="
M430.584351,444.921051 
	C430.423157,444.917877 430.182678,444.712891 429.903809,444.386658 
	C430.079529,444.407654 430.292755,444.558929 430.584351,444.921051 
z" data-index="38"></path>
<path fill="#34151F" opacity="1.000000" stroke="none" d="
M445.125183,458.841614 
	C444.940369,458.747406 444.620789,458.509094 444.147614,458.133484 
	C444.326172,458.229950 444.658325,458.463715 445.125183,458.841614 
z" data-index="39"></path>
<path fill="#2D1018" opacity="1.000000" stroke="none" d="
M507.750366,557.590698 
	C507.711914,557.505737 507.910156,557.825378 507.954468,557.914490 
	C507.998779,558.003601 507.788849,557.675659 507.750366,557.590698 
z" data-index="40"></path>
<path fill="#34151F" opacity="1.000000" stroke="none" d="
M453.797180,468.834076 
	C453.718262,468.808044 453.501801,468.603516 453.150604,468.218384 
	C453.227142,468.247345 453.441742,468.453247 453.797180,468.834076 
z" data-index="41"></path>
<path fill="#34151F" opacity="1.000000" stroke="none" d="
M448.529541,461.801819 
	C448.581055,461.911102 448.255554,461.575653 448.175171,461.493774 
	C448.094818,461.411926 448.478058,461.692505 448.529541,461.801819 
z" data-index="42"></path>
<path fill="#34151F" opacity="1.000000" stroke="none" d="
M447.407898,460.751831 
	C447.418274,460.787231 447.317261,460.691803 447.295197,460.669556 
	C447.273132,460.647278 447.397552,460.716431 447.407898,460.751831 
z" data-index="43"></path>
<path fill="#34151F" opacity="1.000000" stroke="none" d="
M446.324066,459.714417 
	C446.318634,459.729706 446.285980,459.699524 446.279114,459.692749 
	C446.272278,459.686005 446.329498,459.699097 446.324066,459.714417 
z" data-index="44"></path>
<path fill="#34151F" opacity="1.000000" stroke="none" d="
M558.079956,390.984253 
	C558.039856,390.938171 558.027893,390.750244 558.007996,390.279907 
	C558.093567,390.271576 558.129639,390.553192 558.079956,390.984253 
z" data-index="45"></path>
<path fill="#34151F" opacity="1.000000" stroke="none" d="
M539.850098,326.582764 
	C539.818176,326.568329 539.842102,326.571960 539.838013,326.574341 
	C539.833862,326.576752 539.882019,326.597198 539.850098,326.582764 
z" data-index="46"></path>
<path fill="#34151F" opacity="1.000000" stroke="none" d="
M535.603882,319.698486 
	C535.546448,319.678894 535.383545,319.532349 535.127075,319.242004 
	C535.179016,319.267487 535.333923,319.425201 535.603882,319.698486 
z" data-index="47"></path>
<path fill="#34151F" opacity="1.000000" stroke="none" d="
M529.669250,309.733765 
	C529.605103,309.714081 529.424683,309.554260 529.139099,309.240479 
	C529.198425,309.265991 529.371399,309.435028 529.669250,309.733765 
z" data-index="48"></path>
<path fill="#34151F" opacity="1.000000" stroke="none" d="
M528.767212,308.826569 
	C528.691650,308.796265 528.481750,308.586517 528.143921,308.190491 
	C528.214111,308.226196 528.419739,308.440521 528.767212,308.826569 
z" data-index="49"></path>

<path fill="#020000" opacity="1.000000" stroke="none" d="
M449.533508,497.854462 
	C454.006378,506.549133 458.388763,514.931824 462.454529,523.465332 
	C463.268219,525.173157 462.875031,527.456055 463.038361,529.473755 
	C461.046906,529.374695 459.000000,529.533630 457.076019,529.120361 
	C453.542480,528.361572 450.081360,527.265686 446.365570,526.138794 
	C446.141083,525.967346 446.325684,525.721375 446.325684,525.721375 
	C446.325684,525.721375 446.011292,526.025085 446.011292,526.025085 
	C441.017395,523.637634 435.778076,521.648621 431.091888,518.761719 
	C425.272034,515.176514 419.931244,510.817993 414.331970,506.866516 
	C413.182587,506.055420 411.805634,505.566711 410.262756,504.987183 
	C390.297852,486.416901 376.085510,464.644958 369.681458,436.466156 
	C373.064972,437.160706 374.808838,437.329468 376.423370,437.878418 
	C402.360901,446.697174 422.334930,463.690430 439.597260,484.296021 
	C443.117706,488.498260 446.100861,493.150635 449.533508,497.854462 
z" data-index="51" style="opacity: 1; visibility: hidden;"></path>

<path fill="#020000" opacity="1.000000" stroke="none" d="
M587.489319,523.481079 
	C587.468201,523.486328 587.510437,523.475769 587.489319,523.481079 
z" data-index="53"></path>
<path fill="#34151F" opacity="1.000000" stroke="none" d="
M580.640015,491.137421 
	C580.082886,492.410034 579.232422,493.826569 578.175659,495.457489 
	C578.761780,494.208374 579.554199,492.744843 580.640015,491.137421 
z" data-index="54"></path>
<path fill="#34151F" opacity="1.000000" stroke="none" d="
M575.868103,498.236328 
	C575.581909,498.933014 575.051819,499.836243 574.299194,500.968384 
	C574.592529,500.279114 575.108337,499.360962 575.868103,498.236328 
z" data-index="55"></path>
<path fill="#34151F" opacity="1.000000" stroke="none" d="
M588.032715,481.256744 
	C587.736267,481.708130 587.171326,482.334534 586.349121,483.151611 
	C586.649353,482.705444 587.206787,482.068604 588.032715,481.256744 
z" data-index="56"></path>
<path fill="#3B1B26" opacity="1.000000" stroke="none" d="
M472.880981,503.043976 
	C473.714081,503.502441 474.475067,504.146393 475.236023,504.790375 
	C474.870819,505.096954 474.505646,505.403534 474.140442,505.710144 
	C473.696564,504.883240 473.252686,504.056366 472.880981,503.043976 
z" data-index="57"></path>
<path fill="#3B1B26" opacity="1.000000" stroke="none" d="
M471.510010,497.504974 
	C471.507355,497.487640 471.512695,497.522308 471.510010,497.504974 
z" data-index="58"></path>
<path fill="#3C1C26" opacity="1.000000" stroke="none" d="
M505.074280,457.205505 
	C505.666595,457.716888 506.289581,458.506348 507.074097,459.554260 
	C506.525421,459.036346 505.815186,458.259949 505.074280,457.205505 
z" data-index="59"></path>

<path fill="#34151F" opacity="1.000000" stroke="none" d="
M582.007935,524.994446 
	C582.017212,524.985535 581.987488,524.963318 581.983398,524.992432 
	C581.979370,525.021484 581.998718,525.003357 582.007935,524.994446 
z" data-index="61" style="visibility: hidden;"></path>
</svg>